<svg width="132" height="102" viewBox="0 0 132 102" fill="none" xmlns="http://www.w3.org/2000/svg">
<path d="M99.0885 38.6427C98.4064 37.5366 97.4252 36.6503 96.2604 36.088C95.0997 35.5319 93.8088 35.3119 92.5314 35.4524C91.2541 35.593 90.0405 36.0887 89.026 36.8843L80.7392 43.5197V40.5338C80.7198 37.694 79.8743 34.9226 78.3076 32.5633C76.7409 30.2041 74.522 28.361 71.9263 27.2629C70.1838 26.5407 68.3184 26.1688 66.4346 26.168H47.0331C45.1488 26.1628 43.2821 26.5349 41.5414 27.2629C38.0441 28.7444 35.2673 31.558 33.8137 35.0927C33.0948 36.8381 32.7259 38.71 32.7285 40.6001V61.0705C32.7285 62.9642 33.0988 64.8393 33.818 66.5884C34.5373 68.3376 35.5915 69.9264 36.9202 71.2639C38.249 72.6014 39.8261 73.6613 41.5614 74.3829C43.2968 75.1046 45.1561 75.4738 47.0331 75.4695H66.2045C69.0275 75.4618 71.7858 74.6154 74.135 73.0359C76.4842 71.4564 78.3203 69.2137 79.414 66.5879C80.1367 64.8398 80.5089 62.9646 80.509 61.0705V58.0846L88.7958 64.72C89.8612 65.5694 91.1568 66.0803 92.5117 66.1798H93.3338C94.3607 66.1839 95.3742 65.9453 96.2933 65.4831C97.4475 64.8873 98.4151 63.9799 99.0885 62.8621C99.7819 61.7617 100.147 60.4834 100.141 59.1794V42.0931C100.093 40.8702 99.7308 39.6809 99.0885 38.6427ZM65.0535 55.6294C65.4892 56.1011 65.7263 56.725 65.7151 57.3697C65.7038 58.0143 65.4449 58.6294 64.9931 59.0853C64.5412 59.5412 63.9316 59.8023 63.2926 59.8137C62.6537 59.8251 62.0353 59.5858 61.5678 59.1462L56.701 54.2692L51.8999 59.1131C51.6722 59.3457 51.4007 59.5301 51.1015 59.6554C50.8022 59.7807 50.4811 59.8445 50.1571 59.843C49.8327 59.8466 49.511 59.7838 49.2115 59.6583C48.9119 59.5328 48.6407 59.3474 48.4142 59.1131C48.1811 58.8846 47.9958 58.6112 47.8693 58.3092C47.7428 58.0071 47.6776 57.6826 47.6776 57.3547C47.6776 57.0268 47.7428 56.7022 47.8693 56.4002C47.9958 56.0981 48.1811 55.8248 48.4142 55.5963L53.2153 50.7524L48.4142 45.9085C47.9786 45.4368 47.7414 44.8129 47.7527 44.1683C47.7639 43.5236 48.0228 42.9086 48.4746 42.4527C48.9265 41.9968 49.5361 41.7356 50.1751 41.7243C50.814 41.7129 51.4324 41.9522 51.8999 42.3917L56.701 47.2356L61.5678 42.3585C62.0353 41.919 62.6537 41.6797 63.2926 41.6911C63.9316 41.7025 64.5412 41.9636 64.9931 42.4195C65.4449 42.8754 65.7038 43.4905 65.7151 44.1351C65.7263 44.7797 65.4892 45.4036 65.0535 45.8753L60.2196 50.7524L65.0535 55.6294Z" fill="#4584FF"/>
<g filter="url(#filter0_bi_3501_697)">
<rect x="0.728516" y="0.167969" width="130.8" height="100.615" rx="24.1477" fill="#272222" fill-opacity="0.2"/>
<rect x="2.23775" y="1.6772" width="127.782" height="97.5969" rx="22.6385" stroke="url(#paint0_linear_3501_697)" stroke-width="3.01846"/>
</g>
<path d="M99.0885 38.6427C98.4064 37.5366 97.4252 36.6503 96.2604 36.088C95.0997 35.5319 93.8088 35.3119 92.5314 35.4524C91.2541 35.593 90.0405 36.0887 89.026 36.8843L80.7392 43.5197V40.5338C80.7198 37.694 79.8743 34.9226 78.3076 32.5633C76.7409 30.2041 74.522 28.361 71.9263 27.2629C70.1838 26.5407 68.3184 26.1688 66.4346 26.168H47.0331C45.1488 26.1628 43.2821 26.5349 41.5414 27.2629C38.0441 28.7444 35.2673 31.558 33.8137 35.0927C33.0948 36.8381 32.7259 38.71 32.7285 40.6001V61.0705C32.7285 62.9642 33.0988 64.8393 33.818 66.5884C34.5373 68.3376 35.5915 69.9264 36.9202 71.2639C38.249 72.6014 39.8261 73.6613 41.5614 74.3829C43.2968 75.1046 45.1561 75.4738 47.0331 75.4695H66.2045C69.0275 75.4618 71.7858 74.6154 74.135 73.0359C76.4842 71.4564 78.3203 69.2137 79.414 66.5879C80.1367 64.8398 80.5089 62.9646 80.509 61.0705V58.0846L88.7958 64.72C89.8612 65.5694 91.1568 66.0803 92.5117 66.1798H93.3338C94.3607 66.1839 95.3742 65.9453 96.2933 65.4831C97.4475 64.8873 98.4151 63.9799 99.0885 62.8621C99.7819 61.7617 100.147 60.4834 100.141 59.1794V42.0931C100.093 40.8702 99.7308 39.6809 99.0885 38.6427ZM65.0535 55.6294C65.4892 56.1011 65.7263 56.725 65.7151 57.3697C65.7038 58.0143 65.4449 58.6294 64.9931 59.0853C64.5412 59.5412 63.9316 59.8023 63.2926 59.8137C62.6537 59.8251 62.0353 59.5858 61.5678 59.1462L56.701 54.2692L51.8999 59.1131C51.6722 59.3457 51.4007 59.5301 51.1015 59.6554C50.8022 59.7807 50.4811 59.8445 50.1571 59.843C49.8327 59.8466 49.511 59.7838 49.2115 59.6583C48.9119 59.5328 48.6407 59.3474 48.4142 59.1131C48.1811 58.8846 47.9958 58.6112 47.8693 58.3092C47.7428 58.0071 47.6776 57.6826 47.6776 57.3547C47.6776 57.0268 47.7428 56.7022 47.8693 56.4002C47.9958 56.0981 48.1811 55.8248 48.4142 55.5963L53.2153 50.7524L48.4142 45.9085C47.9786 45.4368 47.7414 44.8129 47.7527 44.1683C47.7639 43.5236 48.0228 42.9086 48.4746 42.4527C48.9265 41.9968 49.5361 41.7356 50.1751 41.7243C50.814 41.7129 51.4324 41.9522 51.8999 42.3917L56.701 47.2356L61.5678 42.3585C62.0353 41.919 62.6537 41.6797 63.2926 41.6911C63.9316 41.7025 64.5412 41.9636 64.9931 42.4195C65.4449 42.8754 65.7038 43.4905 65.7151 44.1351C65.7263 44.7797 65.4892 45.4036 65.0535 45.8753L60.2196 50.7524L65.0535 55.6294Z" fill="#4584FF"/>
<defs>
<filter id="filter0_bi_3501_697" x="-74.733" y="-75.2936" width="281.723" height="251.538" filterUnits="userSpaceOnUse" color-interpolation-filters="sRGB">
<feFlood flood-opacity="0" result="BackgroundImageFix"/>
<feGaussianBlur in="BackgroundImageFix" stdDeviation="37.7308"/>
<feComposite in2="SourceAlpha" operator="in" result="effect1_backgroundBlur_3501_697"/>
<feBlend mode="normal" in="SourceGraphic" in2="effect1_backgroundBlur_3501_697" result="shape"/>
<feColorMatrix in="SourceAlpha" type="matrix" values="0 0 0 0 0 0 0 0 0 0 0 0 0 0 0 0 0 0 127 0" result="hardAlpha"/>
<feOffset dx="3.01846" dy="3.01846"/>
<feGaussianBlur stdDeviation="1.50923"/>
<feComposite in2="hardAlpha" operator="arithmetic" k2="-1" k3="1"/>
<feColorMatrix type="matrix" values="0 0 0 0 0 0 0 0 0 0 0 0 0 0 0 0 0 0 0.15 0"/>
<feBlend mode="normal" in2="shape" result="effect2_innerShadow_3501_697"/>
</filter>
<linearGradient id="paint0_linear_3501_697" x1="0.728516" y1="12.8471" x2="117.68" y2="124.311" gradientUnits="userSpaceOnUse">
<stop stop-color="#4584FF"/>
<stop offset="1" stop-color="#231013" stop-opacity="0.55"/>
</linearGradient>
</defs>
</svg>
