<svg width="132" height="102" viewBox="0 0 132 102" fill="none" xmlns="http://www.w3.org/2000/svg">
<path d="M77.0704 24.1895C76.7078 23.4128 76.0783 22.792 75.2966 22.4402C74.5149 22.0885 73.6328 22.029 72.811 22.2728L65.6233 24.7752L58.4356 22.2728L58.2226 22.1131C57.3847 21.933 56.51 22.0597 55.7576 22.4701C55.0053 22.8805 54.4252 23.5473 54.1229 24.3492L46.2431 45.167H85.0035L77.1236 24.3492L77.0704 24.1895Z" fill="#4584FF"/>
<path fill-rule="evenodd" clip-rule="evenodd" d="M81.17 55.709C75.4199 55.709 70.6813 59.7021 69.4035 65.0264C66.5284 63.8018 63.813 64.1212 61.8431 64.9731C60.5653 59.6489 55.7734 55.709 50.0765 55.709C43.4212 55.709 38.0438 61.0864 38.0438 67.7417C38.0438 74.397 43.4212 79.7745 50.0765 79.7745C56.4656 79.7745 61.5769 74.9294 62.056 68.7001C63.1209 68.0079 65.8362 66.6236 69.1905 68.7533C69.415 71.8718 70.8455 74.7801 73.1786 76.8614C75.5117 78.9427 78.5639 80.0332 81.6876 79.9016C84.8114 79.77 87.761 78.4266 89.9108 76.1565C92.0605 73.8863 93.2414 70.868 93.2028 67.7417C93.2028 61.0864 87.8253 55.709 81.17 55.709ZM58.7018 67.7417C58.7018 63.0032 54.9748 59.1165 50.0765 59.1165C45.338 59.1165 41.4513 63.0032 41.4513 67.7417C41.4513 72.4803 45.338 76.367 50.0765 76.367C54.9748 76.367 58.7018 72.4803 58.7018 67.7417ZM89.7953 67.7417C89.7953 63.0032 85.9086 59.1165 81.17 59.1165C76.2717 59.1165 72.5448 63.0032 72.5448 67.7417C72.5448 72.4803 76.2717 76.367 81.17 76.367C85.9086 76.367 89.7953 72.4803 89.7953 67.7417Z" fill="#4584FF"/>
<path d="M96.6635 48.7342H34.583V52.3015H96.6635V48.7342Z" fill="#4584FF"/>
<path fill-rule="evenodd" clip-rule="evenodd" d="M58.7018 67.7417C58.7018 63.0032 54.9748 59.1165 50.0765 59.1165C45.338 59.1165 41.4513 63.0032 41.4513 67.7417C41.4513 72.4803 45.338 76.367 50.0765 76.367C54.9748 76.367 58.7018 72.4803 58.7018 67.7417ZM89.7953 67.7417C89.7953 63.0032 85.9086 59.1165 81.17 59.1165C76.2717 59.1165 72.5448 63.0032 72.5448 67.7417C72.5448 72.4803 76.2717 76.367 81.17 76.367C85.9086 76.367 89.7953 72.4803 89.7953 67.7417Z" fill="#4584FF"/>
<g filter="url(#filter0_bi_3501_857)">
<rect x="0.306641" y="0.167969" width="130.8" height="100.615" rx="24.1477" fill="#272222" fill-opacity="0.2"/>
<rect x="1.81587" y="1.6772" width="127.782" height="97.5969" rx="22.6385" stroke="url(#paint0_linear_3501_857)" stroke-width="3.01846"/>
</g>
<path d="M77.0704 24.1895C76.7078 23.4128 76.0783 22.792 75.2966 22.4402C74.5149 22.0885 73.6328 22.029 72.811 22.2728L65.6233 24.7752L58.4356 22.2728L58.2226 22.1131C57.3847 21.933 56.51 22.0597 55.7576 22.4701C55.0053 22.8805 54.4252 23.5473 54.1229 24.3492L46.2431 45.167H85.0035L77.1236 24.3492L77.0704 24.1895Z" fill="#4584FF"/>
<path fill-rule="evenodd" clip-rule="evenodd" d="M81.17 55.709C75.4199 55.709 70.6813 59.7021 69.4035 65.0264C66.5284 63.8018 63.813 64.1212 61.8431 64.9731C60.5653 59.6489 55.7734 55.709 50.0765 55.709C43.4212 55.709 38.0438 61.0864 38.0438 67.7417C38.0438 74.397 43.4212 79.7745 50.0765 79.7745C56.4656 79.7745 61.5769 74.9294 62.056 68.7001C63.1209 68.0079 65.8362 66.6236 69.1905 68.7533C69.415 71.8718 70.8455 74.7801 73.1786 76.8614C75.5117 78.9427 78.5639 80.0332 81.6876 79.9016C84.8114 79.77 87.761 78.4266 89.9108 76.1565C92.0605 73.8863 93.2414 70.868 93.2028 67.7417C93.2028 61.0864 87.8253 55.709 81.17 55.709ZM58.7018 67.7417C58.7018 63.0032 54.9748 59.1165 50.0765 59.1165C45.338 59.1165 41.4513 63.0032 41.4513 67.7417C41.4513 72.4803 45.338 76.367 50.0765 76.367C54.9748 76.367 58.7018 72.4803 58.7018 67.7417ZM89.7953 67.7417C89.7953 63.0032 85.9086 59.1165 81.17 59.1165C76.2717 59.1165 72.5448 63.0032 72.5448 67.7417C72.5448 72.4803 76.2717 76.367 81.17 76.367C85.9086 76.367 89.7953 72.4803 89.7953 67.7417Z" fill="#4584FF"/>
<path d="M96.6635 48.7342H34.583V52.3015H96.6635V48.7342Z" fill="#4584FF"/>
<path fill-rule="evenodd" clip-rule="evenodd" d="M58.7018 67.7417C58.7018 63.0032 54.9748 59.1165 50.0765 59.1165C45.338 59.1165 41.4513 63.0032 41.4513 67.7417C41.4513 72.4803 45.338 76.367 50.0765 76.367C54.9748 76.367 58.7018 72.4803 58.7018 67.7417ZM89.7953 67.7417C89.7953 63.0032 85.9086 59.1165 81.17 59.1165C76.2717 59.1165 72.5448 63.0032 72.5448 67.7417C72.5448 72.4803 76.2717 76.367 81.17 76.367C85.9086 76.367 89.7953 72.4803 89.7953 67.7417Z" fill="#4584FF"/>
<defs>
<filter id="filter0_bi_3501_857" x="-75.1549" y="-75.2936" width="281.723" height="251.538" filterUnits="userSpaceOnUse" color-interpolation-filters="sRGB">
<feFlood flood-opacity="0" result="BackgroundImageFix"/>
<feGaussianBlur in="BackgroundImageFix" stdDeviation="37.7308"/>
<feComposite in2="SourceAlpha" operator="in" result="effect1_backgroundBlur_3501_857"/>
<feBlend mode="normal" in="SourceGraphic" in2="effect1_backgroundBlur_3501_857" result="shape"/>
<feColorMatrix in="SourceAlpha" type="matrix" values="0 0 0 0 0 0 0 0 0 0 0 0 0 0 0 0 0 0 127 0" result="hardAlpha"/>
<feOffset dx="3.01846" dy="3.01846"/>
<feGaussianBlur stdDeviation="1.50923"/>
<feComposite in2="hardAlpha" operator="arithmetic" k2="-1" k3="1"/>
<feColorMatrix type="matrix" values="0 0 0 0 0 0 0 0 0 0 0 0 0 0 0 0 0 0 0.15 0"/>
<feBlend mode="normal" in2="shape" result="effect2_innerShadow_3501_857"/>
</filter>
<linearGradient id="paint0_linear_3501_857" x1="0.306641" y1="12.8471" x2="117.258" y2="124.311" gradientUnits="userSpaceOnUse">
<stop stop-color="#4584FF"/>
<stop offset="1" stop-color="#231013" stop-opacity="0.55"/>
</linearGradient>
</defs>
</svg>
