<svg width="133" height="102" viewBox="0 0 133 102" fill="none" xmlns="http://www.w3.org/2000/svg">
<path d="M73.5161 39.526C74.4031 41.2569 76.5253 41.9409 78.2561 41.0538C79.987 40.1668 80.671 38.0446 79.7839 36.3137L73.5161 39.526ZM70.0094 33.7695V37.291C70.0547 37.291 70.1 37.2902 70.1453 37.2884L70.0094 33.7695ZM62.6272 66.9615V63.44C62.5819 63.44 62.5366 63.4408 62.4913 63.4426L62.6272 66.9615ZM59.1206 61.205C58.2335 59.4742 56.1113 58.7901 54.3805 59.6772C52.6497 60.5642 51.9656 62.6864 52.8527 64.4173L59.1206 61.205ZM69.8398 22.7018C69.8398 20.7569 68.2632 19.1803 66.3183 19.1803C64.3734 19.1803 62.7968 20.7569 62.7968 22.7018H69.8398ZM62.7968 33.7695C62.7968 35.7144 64.3734 37.291 66.3183 37.291C68.2632 37.291 69.8398 35.7144 69.8398 33.7695H62.7968ZM69.8398 66.9726C69.8398 65.0277 68.2632 63.451 66.3183 63.451C64.3734 63.451 62.7968 65.0277 62.7968 66.9726H69.8398ZM62.7968 78.0403C62.7968 79.9852 64.3734 81.5618 66.3183 81.5618C68.2632 81.5618 69.8398 79.9852 69.8398 78.0403H62.7968ZM35.6053 14.6779C34.2301 13.3026 32.0004 13.3026 30.6251 14.6779C29.2499 16.0531 29.2499 18.2828 30.6251 19.6581L35.6053 14.6779ZM38.9259 27.9588C40.3011 29.3341 42.5309 29.3341 43.9061 27.9588C45.2814 26.5836 45.2814 24.3539 43.9061 22.9786L38.9259 27.9588ZM93.7107 72.7832C92.3355 71.408 90.1058 71.408 88.7305 72.7832C87.3553 74.1585 87.3553 76.3882 88.7305 77.7635L93.7107 72.7832ZM97.0313 86.0642C98.4065 87.4395 100.636 87.4395 102.011 86.0642C103.387 84.689 103.387 82.4593 102.011 81.084L97.0313 86.0642ZM79.7839 36.3137C77.874 32.5871 74.1253 30.0864 69.8735 30.2506L70.1453 37.2884C71.3388 37.2423 72.7033 37.9401 73.5161 39.526L79.7839 36.3137ZM70.0094 30.248H62.6272V37.291H70.0094V30.248ZM62.6272 30.248C56.2327 30.248 51.7291 35.9317 51.7291 42.0703H58.7722C58.7722 39.0227 60.8759 37.291 62.6272 37.291V30.248ZM51.7291 42.0703C51.7291 48.1907 56.2313 53.887 62.6272 53.887V46.844C60.8773 46.844 58.7722 45.1029 58.7722 42.0703H51.7291ZM62.6272 53.887H70.0094V46.844H62.6272V53.887ZM70.0094 53.887C71.7593 53.887 73.8645 55.6226 73.8645 58.6663H80.9075C80.9075 52.5348 76.4053 46.844 70.0094 46.844V53.887ZM73.8645 58.6663C73.8645 61.7028 71.7607 63.44 70.0094 63.44V70.483C76.4039 70.483 80.9075 64.7938 80.9075 58.6663H73.8645ZM70.0094 63.44H62.6272V70.483H70.0094V63.44ZM62.4913 63.4426C61.2978 63.4887 59.9333 62.7909 59.1206 61.205L52.8527 64.4173C54.7626 68.1439 58.5113 70.6446 62.7631 70.4804L62.4913 63.4426ZM62.7968 22.7018V33.7695H69.8398V22.7018H62.7968ZM62.7968 66.9726V78.0403H69.8398V66.9726H62.7968ZM30.6251 19.6581L38.9259 27.9588L43.9061 22.9786L35.6053 14.6779L30.6251 19.6581ZM88.7305 77.7635L97.0313 86.0642L102.011 81.084L93.7107 72.7832L88.7305 77.7635Z" fill="#4584FF"/>
<g filter="url(#filter0_bi_3501_1408)">
<rect x="0.115234" y="1.16797" width="130.8" height="100.615" rx="24.1477" fill="#272222" fill-opacity="0.2"/>
<rect x="1.62447" y="2.6772" width="127.782" height="97.5969" rx="22.6385" stroke="url(#paint0_linear_3501_1408)" stroke-width="3.01846"/>
</g>
<path d="M73.5161 39.526C74.4031 41.2569 76.5253 41.9409 78.2561 41.0538C79.987 40.1668 80.671 38.0446 79.7839 36.3137L73.5161 39.526ZM70.0094 33.7695V37.291C70.0547 37.291 70.1 37.2902 70.1453 37.2884L70.0094 33.7695ZM62.6272 66.9615V63.44C62.5819 63.44 62.5366 63.4408 62.4913 63.4426L62.6272 66.9615ZM59.1206 61.205C58.2335 59.4742 56.1113 58.7901 54.3805 59.6772C52.6497 60.5642 51.9656 62.6864 52.8527 64.4173L59.1206 61.205ZM69.8398 22.7018C69.8398 20.7569 68.2632 19.1803 66.3183 19.1803C64.3734 19.1803 62.7968 20.7569 62.7968 22.7018H69.8398ZM62.7968 33.7695C62.7968 35.7144 64.3734 37.291 66.3183 37.291C68.2632 37.291 69.8398 35.7144 69.8398 33.7695H62.7968ZM69.8398 66.9726C69.8398 65.0277 68.2632 63.451 66.3183 63.451C64.3734 63.451 62.7968 65.0277 62.7968 66.9726H69.8398ZM62.7968 78.0403C62.7968 79.9852 64.3734 81.5618 66.3183 81.5618C68.2632 81.5618 69.8398 79.9852 69.8398 78.0403H62.7968ZM35.6053 14.6779C34.2301 13.3026 32.0004 13.3026 30.6251 14.6779C29.2499 16.0531 29.2499 18.2828 30.6251 19.6581L35.6053 14.6779ZM38.9259 27.9588C40.3011 29.3341 42.5309 29.3341 43.9061 27.9588C45.2814 26.5836 45.2814 24.3539 43.9061 22.9786L38.9259 27.9588ZM93.7107 72.7832C92.3355 71.408 90.1058 71.408 88.7305 72.7832C87.3553 74.1585 87.3553 76.3882 88.7305 77.7635L93.7107 72.7832ZM97.0313 86.0642C98.4065 87.4395 100.636 87.4395 102.011 86.0642C103.387 84.689 103.387 82.4593 102.011 81.084L97.0313 86.0642ZM79.7839 36.3137C77.874 32.5871 74.1253 30.0864 69.8735 30.2506L70.1453 37.2884C71.3388 37.2423 72.7033 37.9401 73.5161 39.526L79.7839 36.3137ZM70.0094 30.248H62.6272V37.291H70.0094V30.248ZM62.6272 30.248C56.2327 30.248 51.7291 35.9317 51.7291 42.0703H58.7722C58.7722 39.0227 60.8759 37.291 62.6272 37.291V30.248ZM51.7291 42.0703C51.7291 48.1907 56.2313 53.887 62.6272 53.887V46.844C60.8773 46.844 58.7722 45.1029 58.7722 42.0703H51.7291ZM62.6272 53.887H70.0094V46.844H62.6272V53.887ZM70.0094 53.887C71.7593 53.887 73.8645 55.6226 73.8645 58.6663H80.9075C80.9075 52.5348 76.4053 46.844 70.0094 46.844V53.887ZM73.8645 58.6663C73.8645 61.7028 71.7607 63.44 70.0094 63.44V70.483C76.4039 70.483 80.9075 64.7938 80.9075 58.6663H73.8645ZM70.0094 63.44H62.6272V70.483H70.0094V63.44ZM62.4913 63.4426C61.2978 63.4887 59.9333 62.7909 59.1206 61.205L52.8527 64.4173C54.7626 68.1439 58.5113 70.6446 62.7631 70.4804L62.4913 63.4426ZM62.7968 22.7018V33.7695H69.8398V22.7018H62.7968ZM62.7968 66.9726V78.0403H69.8398V66.9726H62.7968ZM30.6251 19.6581L38.9259 27.9588L43.9061 22.9786L35.6053 14.6779L30.6251 19.6581ZM88.7305 77.7635L97.0313 86.0642L102.011 81.084L93.7107 72.7832L88.7305 77.7635Z" fill="#4584FF"/>
<defs>
<filter id="filter0_bi_3501_1408" x="-75.3463" y="-74.2936" width="281.723" height="251.538" filterUnits="userSpaceOnUse" color-interpolation-filters="sRGB">
<feFlood flood-opacity="0" result="BackgroundImageFix"/>
<feGaussianBlur in="BackgroundImageFix" stdDeviation="37.7308"/>
<feComposite in2="SourceAlpha" operator="in" result="effect1_backgroundBlur_3501_1408"/>
<feBlend mode="normal" in="SourceGraphic" in2="effect1_backgroundBlur_3501_1408" result="shape"/>
<feColorMatrix in="SourceAlpha" type="matrix" values="0 0 0 0 0 0 0 0 0 0 0 0 0 0 0 0 0 0 127 0" result="hardAlpha"/>
<feOffset dx="3.01846" dy="3.01846"/>
<feGaussianBlur stdDeviation="1.50923"/>
<feComposite in2="hardAlpha" operator="arithmetic" k2="-1" k3="1"/>
<feColorMatrix type="matrix" values="0 0 0 0 0 0 0 0 0 0 0 0 0 0 0 0 0 0 0.15 0"/>
<feBlend mode="normal" in2="shape" result="effect2_innerShadow_3501_1408"/>
</filter>
<linearGradient id="paint0_linear_3501_1408" x1="0.115234" y1="13.8471" x2="117.067" y2="125.311" gradientUnits="userSpaceOnUse">
<stop stop-color="#4584FF"/>
<stop offset="1" stop-color="#231013" stop-opacity="0.55"/>
</linearGradient>
</defs>
</svg>
