<svg width="133" height="102" viewBox="0 0 133 102" fill="none" xmlns="http://www.w3.org/2000/svg">
<path d="M38.5352 30.418C38.5352 29.8212 38.7762 29.2489 39.2051 28.827C39.6341 28.405 40.216 28.168 40.8227 28.168C48.9448 28.168 56.8596 25.339 64.6127 19.618C65.0086 19.3259 65.4902 19.168 65.9852 19.168C66.4801 19.168 66.9617 19.3259 67.3577 19.618C75.1108 25.339 83.0255 28.168 91.1477 28.168C91.7543 28.168 92.3362 28.405 92.7652 28.827C93.1942 29.2489 93.4352 29.8212 93.4352 30.418V46.168C93.4352 46.711 93.423 47.248 93.3986 47.785C91.9103 46.3055 90.0086 45.2944 87.935 44.8801C85.8614 44.4658 83.7093 44.6671 81.7522 45.4582C79.7951 46.2494 78.1211 47.5948 76.943 49.3236C75.7648 51.0525 75.1356 53.0867 75.1352 55.168V55.318C73.4129 55.6638 71.865 56.5842 70.7534 57.9236C69.6418 59.263 69.0348 60.939 69.0352 62.668V77.668C69.0352 77.818 69.0382 77.962 69.0474 78.106C68.3215 78.418 67.5834 78.718 66.8209 79.012C66.2828 79.2201 65.6845 79.2201 65.1464 79.012C47.5571 72.196 38.5352 61.168 38.5352 46.168V30.418ZM78.1852 58.168V55.168C78.1852 53.1788 78.9885 51.2712 80.4185 49.8647C81.8484 48.4581 83.7879 47.668 85.8102 47.668C87.8324 47.668 89.7719 48.4581 91.2018 49.8647C92.6318 51.2712 93.4352 53.1788 93.4352 55.168V58.168H94.9602C96.1735 58.168 97.3372 58.6421 98.1952 59.486C99.0531 60.3299 99.5352 61.4745 99.5352 62.668V77.668C99.5352 78.8614 99.0531 80.006 98.1952 80.8499C97.3372 81.6939 96.1735 82.168 94.9602 82.168H76.6602C75.4468 82.168 74.2831 81.6939 73.4251 80.8499C72.5672 80.006 72.0852 78.8614 72.0852 77.668V62.668C72.0852 61.4745 72.5672 60.3299 73.4251 59.486C74.2831 58.6421 75.4468 58.168 76.6602 58.168H78.1852ZM82.7602 55.168V58.168H88.8602V55.168C88.8602 54.3723 88.5388 53.6093 87.9668 53.0466C87.3948 52.484 86.6191 52.168 85.8102 52.168C85.0012 52.168 84.2255 52.484 83.6535 53.0466C83.0815 53.6093 82.7602 54.3723 82.7602 55.168ZM88.8602 70.168C88.8602 69.3723 88.5388 68.6093 87.9668 68.0466C87.3948 67.484 86.6191 67.168 85.8102 67.168C85.0012 67.168 84.2255 67.484 83.6535 68.0466C83.0815 68.6093 82.7602 69.3723 82.7602 70.168C82.7602 70.9636 83.0815 71.7267 83.6535 72.2893C84.2255 72.8519 85.0012 73.168 85.8102 73.168C86.6191 73.168 87.3948 72.8519 87.9668 72.2893C88.5388 71.7267 88.8602 70.9636 88.8602 70.168Z" fill="#4584FF"/>
<g filter="url(#filter0_bi_3501_1390)">
<rect x="0.134766" y="1.3418" width="130.8" height="100.615" rx="24.1477" fill="#272222" fill-opacity="0.2"/>
<rect x="1.644" y="2.85103" width="127.782" height="97.5969" rx="22.6385" stroke="url(#paint0_linear_3501_1390)" stroke-width="3.01846"/>
</g>
<path d="M38.5352 30.418C38.5352 29.8212 38.7762 29.2489 39.2051 28.827C39.6341 28.405 40.216 28.168 40.8227 28.168C48.9448 28.168 56.8596 25.339 64.6127 19.618C65.0086 19.3259 65.4902 19.168 65.9852 19.168C66.4801 19.168 66.9617 19.3259 67.3577 19.618C75.1108 25.339 83.0255 28.168 91.1477 28.168C91.7543 28.168 92.3362 28.405 92.7652 28.827C93.1942 29.2489 93.4352 29.8212 93.4352 30.418V46.168C93.4352 46.711 93.423 47.248 93.3986 47.785C91.9103 46.3055 90.0086 45.2944 87.935 44.8801C85.8614 44.4658 83.7093 44.6671 81.7522 45.4582C79.7951 46.2494 78.1211 47.5948 76.943 49.3236C75.7648 51.0525 75.1356 53.0867 75.1352 55.168V55.318C73.4129 55.6638 71.865 56.5842 70.7534 57.9236C69.6418 59.263 69.0348 60.939 69.0352 62.668V77.668C69.0352 77.818 69.0382 77.962 69.0474 78.106C68.3215 78.418 67.5834 78.718 66.8209 79.012C66.2828 79.2201 65.6845 79.2201 65.1464 79.012C47.5571 72.196 38.5352 61.168 38.5352 46.168V30.418ZM78.1852 58.168V55.168C78.1852 53.1788 78.9885 51.2712 80.4185 49.8647C81.8484 48.4581 83.7879 47.668 85.8102 47.668C87.8324 47.668 89.7719 48.4581 91.2018 49.8647C92.6318 51.2712 93.4352 53.1788 93.4352 55.168V58.168H94.9602C96.1735 58.168 97.3372 58.6421 98.1952 59.486C99.0531 60.3299 99.5352 61.4745 99.5352 62.668V77.668C99.5352 78.8614 99.0531 80.006 98.1952 80.8499C97.3372 81.6939 96.1735 82.168 94.9602 82.168H76.6602C75.4468 82.168 74.2831 81.6939 73.4251 80.8499C72.5672 80.006 72.0852 78.8614 72.0852 77.668V62.668C72.0852 61.4745 72.5672 60.3299 73.4251 59.486C74.2831 58.6421 75.4468 58.168 76.6602 58.168H78.1852ZM82.7602 55.168V58.168H88.8602V55.168C88.8602 54.3723 88.5388 53.6093 87.9668 53.0466C87.3948 52.484 86.6191 52.168 85.8102 52.168C85.0012 52.168 84.2255 52.484 83.6535 53.0466C83.0815 53.6093 82.7602 54.3723 82.7602 55.168ZM88.8602 70.168C88.8602 69.3723 88.5388 68.6093 87.9668 68.0466C87.3948 67.484 86.6191 67.168 85.8102 67.168C85.0012 67.168 84.2255 67.484 83.6535 68.0466C83.0815 68.6093 82.7602 69.3723 82.7602 70.168C82.7602 70.9636 83.0815 71.7267 83.6535 72.2893C84.2255 72.8519 85.0012 73.168 85.8102 73.168C86.6191 73.168 87.3948 72.8519 87.9668 72.2893C88.5388 71.7267 88.8602 70.9636 88.8602 70.168Z" fill="#4584FF"/>
<defs>
<filter id="filter0_bi_3501_1390" x="-75.3268" y="-74.1198" width="281.723" height="251.538" filterUnits="userSpaceOnUse" color-interpolation-filters="sRGB">
<feFlood flood-opacity="0" result="BackgroundImageFix"/>
<feGaussianBlur in="BackgroundImageFix" stdDeviation="37.7308"/>
<feComposite in2="SourceAlpha" operator="in" result="effect1_backgroundBlur_3501_1390"/>
<feBlend mode="normal" in="SourceGraphic" in2="effect1_backgroundBlur_3501_1390" result="shape"/>
<feColorMatrix in="SourceAlpha" type="matrix" values="0 0 0 0 0 0 0 0 0 0 0 0 0 0 0 0 0 0 127 0" result="hardAlpha"/>
<feOffset dx="3.01846" dy="3.01846"/>
<feGaussianBlur stdDeviation="1.50923"/>
<feComposite in2="hardAlpha" operator="arithmetic" k2="-1" k3="1"/>
<feColorMatrix type="matrix" values="0 0 0 0 0 0 0 0 0 0 0 0 0 0 0 0 0 0 0.15 0"/>
<feBlend mode="normal" in2="shape" result="effect2_innerShadow_3501_1390"/>
</filter>
<linearGradient id="paint0_linear_3501_1390" x1="0.134766" y1="14.021" x2="117.087" y2="125.485" gradientUnits="userSpaceOnUse">
<stop stop-color="#4584FF"/>
<stop offset="1" stop-color="#231013" stop-opacity="0.55"/>
</linearGradient>
</defs>
</svg>
