<svg width="132" height="102" viewBox="0 0 132 102" fill="none" xmlns="http://www.w3.org/2000/svg">
<path d="M87.7097 32.168C81.5937 32.168 75.5846 36.036 70.9485 40.103C72.1087 41.3854 73.2147 42.717 74.2637 44.094C74.7609 44.7582 75.4864 45.6564 76.3824 46.6746C79.9549 43.5029 84.1546 40.6941 87.7097 40.6941C93.7506 40.6941 98.6642 45.6681 98.6642 51.7833C98.6642 57.8984 93.7506 62.8725 87.7097 62.8725C80.9549 62.8725 71.859 52.7605 69.2056 49.2143C67.9049 47.4705 56.1383 32.168 43.9756 32.168C33.2899 32.168 24.5957 40.9691 24.5957 51.7862C24.5957 62.6033 33.2899 71.4015 43.9756 71.4015C49.9153 71.4015 55.7481 67.75 60.3264 63.8117C59.0519 62.4227 57.8414 60.9747 56.699 59.4726C56.1222 58.7142 55.5207 57.9755 54.8954 57.2577C51.4154 60.2772 47.3978 62.8725 43.9756 62.8725C37.9347 62.8725 33.0211 57.8984 33.0211 51.7833C33.0211 45.6681 37.9347 40.6941 43.9756 40.6941C50.7333 40.6941 59.8264 50.806 62.4797 54.3522C63.7804 56.0961 75.5471 71.3986 87.7097 71.3986C92.8472 71.3932 97.7727 69.3248 101.405 65.6474C105.038 61.97 107.081 56.9839 107.087 51.7833C107.082 46.5824 105.039 41.5959 101.406 37.9183C97.7734 34.2407 92.8474 32.1726 87.7097 32.168Z" fill="#4584FF"/>
<g filter="url(#filter0_bi_3501_911)">
<rect x="0.595703" y="0.167969" width="130.778" height="100.599" rx="24.1437" fill="#272222" fill-opacity="0.2"/>
<rect x="2.10469" y="1.67695" width="127.76" height="97.5808" rx="22.6347" stroke="url(#paint0_linear_3501_911)" stroke-width="3.01796"/>
</g>
<path d="M87.7097 32.168C81.5937 32.168 75.5846 36.036 70.9485 40.103C72.1087 41.3854 73.2147 42.717 74.2637 44.094C74.7609 44.7582 75.4864 45.6564 76.3824 46.6746C79.9549 43.5029 84.1546 40.6941 87.7097 40.6941C93.7506 40.6941 98.6642 45.6681 98.6642 51.7833C98.6642 57.8984 93.7506 62.8725 87.7097 62.8725C80.9549 62.8725 71.859 52.7605 69.2056 49.2143C67.9049 47.4705 56.1383 32.168 43.9756 32.168C33.2899 32.168 24.5957 40.9691 24.5957 51.7862C24.5957 62.6033 33.2899 71.4015 43.9756 71.4015C49.9153 71.4015 55.7481 67.75 60.3264 63.8117C59.0519 62.4227 57.8414 60.9747 56.699 59.4726C56.1222 58.7142 55.5207 57.9755 54.8954 57.2577C51.4154 60.2772 47.3978 62.8725 43.9756 62.8725C37.9347 62.8725 33.0211 57.8984 33.0211 51.7833C33.0211 45.6681 37.9347 40.6941 43.9756 40.6941C50.7333 40.6941 59.8264 50.806 62.4797 54.3522C63.7804 56.0961 75.5471 71.3986 87.7097 71.3986C92.8472 71.3932 97.7727 69.3248 101.405 65.6474C105.038 61.97 107.081 56.9839 107.087 51.7833C107.082 46.5824 105.039 41.5959 101.406 37.9183C97.7734 34.2407 92.8474 32.1726 87.7097 32.168Z" fill="#4584FF"/>
<defs>
<filter id="filter0_bi_3501_911" x="-74.8534" y="-75.2811" width="281.677" height="251.498" filterUnits="userSpaceOnUse" color-interpolation-filters="sRGB">
<feFlood flood-opacity="0" result="BackgroundImageFix"/>
<feGaussianBlur in="BackgroundImageFix" stdDeviation="37.7246"/>
<feComposite in2="SourceAlpha" operator="in" result="effect1_backgroundBlur_3501_911"/>
<feBlend mode="normal" in="SourceGraphic" in2="effect1_backgroundBlur_3501_911" result="shape"/>
<feColorMatrix in="SourceAlpha" type="matrix" values="0 0 0 0 0 0 0 0 0 0 0 0 0 0 0 0 0 0 127 0" result="hardAlpha"/>
<feOffset dx="3.01796" dy="3.01796"/>
<feGaussianBlur stdDeviation="1.50898"/>
<feComposite in2="hardAlpha" operator="arithmetic" k2="-1" k3="1"/>
<feColorMatrix type="matrix" values="0 0 0 0 0 0 0 0 0 0 0 0 0 0 0 0 0 0 0.15 0"/>
<feBlend mode="normal" in2="shape" result="effect2_innerShadow_3501_911"/>
</filter>
<linearGradient id="paint0_linear_3501_911" x1="0.595703" y1="12.8451" x2="117.528" y2="124.291" gradientUnits="userSpaceOnUse">
<stop stop-color="#4584FF"/>
<stop offset="1" stop-color="#231013" stop-opacity="0.55"/>
</linearGradient>
</defs>
</svg>
