<svg width="1920" height="2544" viewBox="0 0 1920 2544" fill="none" xmlns="http://www.w3.org/2000/svg">
<circle cx="961.62" cy="1320.85" r="304.649" transform="rotate(-36.0624 961.62 1320.85)" stroke="url(#paint0_angular_3514_1842)" stroke-width="3.32949"/>
<circle cx="962.967" cy="1319.87" r="392.88" transform="rotate(-36.0624 962.967 1319.87)" stroke="url(#paint1_angular_3514_1842)" stroke-width="3.32949"/>
<circle cx="960.458" cy="1320.67" r="475.285" transform="rotate(-36.0624 960.458 1320.67)" stroke="url(#paint2_angular_3514_1842)" stroke-width="3.32949"/>
<circle cx="960.458" cy="1320.67" r="553.528" transform="rotate(-36.0624 960.458 1320.67)" stroke="url(#paint3_angular_3514_1842)" stroke-width="3.32949"/>
<circle cx="961.62" cy="1320.85" r="634.269" transform="rotate(-36.0624 961.62 1320.85)" stroke="url(#paint4_angular_3514_1842)" stroke-width="3.32949"/>
<path d="M1556.44 887.699C1796.2 1216.95 1723.96 1678.01 1395.08 1917.5C1066.2 2157 605.222 2084.23 365.457 1754.98C125.692 1425.73 197.937 964.668 526.817 725.176C855.696 485.684 1316.67 558.445 1556.44 887.699Z" stroke="url(#paint5_angular_3514_1842)" stroke-width="3.32949"/>
<path d="M33.2133 970.06L33.2351 970.525L33.6383 970.757L33.1735 970.778L32.9414 971.182L32.9197 970.717L32.5164 970.485L32.9812 970.463L33.2133 970.06Z" fill="white"/>
<path d="M133.816 863.939L133.838 864.403L134.241 864.636L133.776 864.657L133.544 865.061L133.522 864.596L133.119 864.364L133.584 864.342L133.816 863.939Z" fill="white"/>
<path d="M81.2631 1019.37L81.2849 1019.83L81.6881 1020.06L81.2234 1020.09L80.9913 1020.49L80.9695 1020.02L80.5662 1019.79L81.031 1019.77L81.2631 1019.37Z" fill="white"/>
<path d="M13.266 1123.17L13.2878 1123.64L13.6911 1123.87L13.2263 1123.89L12.9942 1124.3L12.9724 1123.83L12.5691 1123.6L13.0339 1123.58L13.266 1123.17Z" fill="white"/>
<path d="M287.669 913.353L287.691 913.818L288.094 914.05L287.63 914.071L287.398 914.475L287.376 914.01L286.972 913.778L287.437 913.756L287.669 913.353Z" fill="white"/>
<path d="M310.797 755.777L310.819 756.241L311.222 756.473L310.758 756.495L310.525 756.898L310.504 756.434L310.1 756.202L310.565 756.18L310.797 755.777Z" fill="white"/>
<path d="M499.005 744.452L499.027 744.917L499.43 745.149L498.966 745.171L498.733 745.574L498.712 745.109L498.308 744.877L498.773 744.856L499.005 744.452Z" fill="white"/>
<path d="M546.928 933.87L546.95 934.335L547.353 934.567L546.888 934.589L546.656 934.992L546.635 934.527L546.231 934.295L546.696 934.274L546.928 933.87Z" fill="white"/>
<path d="M675.137 983.382L675.159 983.847L675.562 984.079L675.097 984.101L674.865 984.504L674.844 984.039L674.44 983.807L674.905 983.785L675.137 983.382Z" fill="white"/>
<path d="M542.788 1104.76L542.809 1105.23L543.213 1105.46L542.748 1105.48L542.516 1105.89L542.494 1105.42L542.091 1105.19L542.555 1105.17L542.788 1104.76Z" fill="white"/>
<path d="M363.679 1208.05L363.701 1208.51L364.104 1208.74L363.639 1208.76L363.407 1209.17L363.386 1208.7L362.982 1208.47L363.447 1208.45L363.679 1208.05Z" fill="white"/>
<path d="M317 971.288L317.022 971.753L317.425 971.985L316.961 972.007L316.729 972.41L316.707 971.945L316.304 971.713L316.768 971.692L317 971.288Z" fill="white"/>
<path d="M163.168 1026.87L163.19 1027.34L163.593 1027.57L163.129 1027.59L162.897 1028L162.875 1027.53L162.471 1027.3L162.936 1027.28L163.168 1026.87Z" fill="white"/>
<path d="M194.101 1274.38L194.123 1274.85L194.526 1275.08L194.061 1275.1L193.829 1275.5L193.807 1275.04L193.404 1274.81L193.869 1274.79L194.101 1274.38Z" fill="white"/>
<path d="M41.9096 1303.77L41.9314 1304.24L42.3346 1304.47L41.8698 1304.49L41.6377 1304.89L41.616 1304.43L41.2127 1304.2L41.6775 1304.17L41.9096 1303.77Z" fill="white"/>
<path d="M86.8842 1046.71L86.906 1047.17L87.3092 1047.4L86.8444 1047.42L86.6123 1047.83L86.5906 1047.36L86.1873 1047.13L86.6521 1047.11L86.8842 1046.71Z" fill="white"/>
<path d="M352.594 855.357L352.616 855.821L353.019 856.054L352.554 856.075L352.322 856.479L352.301 856.014L351.897 855.782L352.362 855.76L352.594 855.357Z" fill="white"/>
<path d="M381.598 1002.12L381.62 1002.58L382.023 1002.81L381.558 1002.84L381.326 1003.24L381.304 1002.77L380.901 1002.54L381.366 1002.52L381.598 1002.12Z" fill="white"/>
<path d="M361.323 1104.75L361.344 1105.21L361.748 1105.44L361.283 1105.47L361.051 1105.87L361.029 1105.4L360.626 1105.17L361.091 1105.15L361.323 1104.75Z" fill="white"/>
<path d="M180.922 1037.52L180.944 1037.98L181.347 1038.22L180.883 1038.24L180.65 1038.64L180.629 1038.18L180.225 1037.94L180.69 1037.92L180.922 1037.52Z" fill="white"/>
<path d="M220.693 879.257L220.715 879.722L221.118 879.954L220.653 879.976L220.421 880.379L220.399 879.914L219.996 879.682L220.461 879.66L220.693 879.257Z" fill="white"/>
<path d="M94.6625 1338.94L94.6843 1339.4L95.0876 1339.63L94.6228 1339.66L94.3907 1340.06L94.3689 1339.59L93.9656 1339.36L94.4304 1339.34L94.6625 1338.94Z" fill="white"/>
<path d="M234.277 1013.67L234.299 1014.13L234.702 1014.37L234.237 1014.39L234.005 1014.79L233.983 1014.33L233.58 1014.09L234.045 1014.07L234.277 1013.67Z" fill="white"/>
<path d="M481.922 1136.94L481.944 1137.41L482.347 1137.64L481.883 1137.66L481.65 1138.06L481.629 1137.6L481.225 1137.37L481.69 1137.34L481.922 1136.94Z" fill="white"/>
<path d="M335.377 1306.52L335.399 1306.99L335.802 1307.22L335.338 1307.24L335.106 1307.64L335.084 1307.18L334.68 1306.95L335.145 1306.92L335.377 1306.52Z" fill="white"/>
<path d="M208.538 1135.28L208.559 1135.75L208.963 1135.98L208.498 1136L208.266 1136.4L208.244 1135.94L207.841 1135.71L208.305 1135.69L208.538 1135.28Z" fill="white"/>
<path d="M416.798 660.013L416.82 660.478L417.223 660.71L416.759 660.732L416.526 661.135L416.505 660.67L416.101 660.438L416.566 660.416L416.798 660.013Z" fill="white"/>
<path d="M442.2 611.511L442.221 611.976L442.625 612.208L442.16 612.23L441.928 612.633L441.906 612.168L441.503 611.936L441.968 611.914L442.2 611.511Z" fill="white"/>
<path d="M715.892 976.564L715.914 977.028L716.317 977.261L715.852 977.282L715.62 977.686L715.598 977.221L715.195 976.989L715.66 976.967L715.892 976.564Z" fill="white"/>
<path d="M660.861 1103.08L660.883 1103.54L661.286 1103.78L660.821 1103.8L660.589 1104.2L660.567 1103.74L660.164 1103.5L660.629 1103.48L660.861 1103.08Z" fill="white"/>
<path d="M451.322 947.769L451.343 948.234L451.747 948.466L451.282 948.487L451.05 948.891L451.028 948.426L450.625 948.194L451.09 948.172L451.322 947.769Z" fill="white"/>
<path d="M281.699 1131.13L281.742 1132.06L282.549 1132.52L281.619 1132.57L281.155 1133.37L281.111 1132.44L280.304 1131.98L281.234 1131.94L281.699 1131.13Z" fill="white"/>
<path d="M108.379 1135.9L108.423 1136.83L109.23 1137.29L108.3 1137.34L107.835 1138.14L107.792 1137.21L106.985 1136.75L107.915 1136.7L108.379 1135.9Z" fill="white"/>
<path d="M289.637 798.165L289.681 799.095L290.488 799.559L289.558 799.603L289.093 800.41L289.05 799.48L288.243 799.015L289.173 798.972L289.637 798.165Z" fill="white"/>
<path d="M138.034 818.551L138.077 819.481L138.884 819.946L137.954 819.989L137.49 820.796L137.446 819.866L136.639 819.402L137.569 819.358L138.034 818.551Z" fill="white"/>
<path d="M37.2856 894.059L37.3291 894.989L38.1361 895.454L37.206 895.497L36.7416 896.304L36.698 895.374L35.8911 894.91L36.8211 894.866L37.2856 894.059Z" fill="white"/>
<path d="M319.574 665.635L319.617 666.565L320.424 667.03L319.494 667.073L319.03 667.88L318.986 666.95L318.179 666.486L319.109 666.442L319.574 665.635Z" fill="white"/>
<path d="M434.682 1021.87L434.726 1022.8L435.533 1023.26L434.603 1023.31L434.138 1024.11L434.095 1023.18L433.288 1022.72L434.218 1022.68L434.682 1021.87Z" fill="white"/>
<path d="M100.678 1247.95L100.722 1248.88L101.529 1249.34L100.599 1249.38L100.134 1250.19L100.091 1249.26L99.2837 1248.8L100.214 1248.75L100.678 1247.95Z" fill="white"/>
<path d="M192.697 1406.68L192.74 1407.61L193.547 1408.08L192.617 1408.12L192.153 1408.93L192.109 1408L191.302 1407.53L192.232 1407.49L192.697 1406.68Z" fill="white"/>
<path d="M13.8666 1269.02L13.9102 1269.95L14.7171 1270.41L13.7871 1270.45L13.3226 1271.26L13.2791 1270.33L12.4721 1269.87L13.4022 1269.82L13.8666 1269.02Z" fill="white"/>
<path d="M115.133 1418.87L115.177 1419.8L115.984 1420.27L115.054 1420.31L114.589 1421.12L114.546 1420.19L113.739 1419.72L114.669 1419.68L115.133 1418.87Z" fill="white"/>
<path d="M64.3669 774.171L64.0537 774.515L64.1747 774.964L63.8307 774.651L63.3814 774.772L63.6947 774.428L63.5736 773.978L63.9177 774.292L64.3669 774.171Z" fill="white"/>
<path d="M11.3884 743.04L11.0752 743.384L11.1962 743.833L10.8522 743.52L10.4029 743.641L10.7161 743.297L10.5951 742.847L10.9392 743.161L11.3884 743.04Z" fill="white"/>
<path d="M170.642 819.53L170.329 819.874L170.45 820.323L170.106 820.01L169.657 820.131L169.97 819.787L169.849 819.338L170.193 819.651L170.642 819.53Z" fill="white"/>
<path d="M80.1414 744.499L79.8281 744.843L79.9491 745.292L79.6051 744.979L79.1558 745.1L79.4691 744.756L79.348 744.306L79.6921 744.62L80.1414 744.499Z" fill="white"/>
<path d="M316.818 815.628L316.505 815.972L316.626 816.421L316.282 816.108L315.833 816.229L316.146 815.885L316.025 815.435L316.369 815.749L316.818 815.628Z" fill="white"/>
<path d="M169.755 888.37L169.441 888.714L169.562 889.163L169.218 888.85L168.769 888.971L169.082 888.627L168.961 888.177L169.305 888.491L169.755 888.37Z" fill="white"/>
<path d="M66.74 825.987L66.4267 826.331L66.5478 826.78L66.2037 826.467L65.7544 826.588L66.0677 826.244L65.9467 825.795L66.2907 826.108L66.74 825.987Z" fill="white"/>
<path d="M48.2703 913.692L47.957 914.036L48.078 914.485L47.734 914.172L47.2847 914.293L47.598 913.949L47.4769 913.5L47.821 913.813L48.2703 913.692Z" fill="white"/>
<path d="M390.67 959.356L390.356 959.7L390.477 960.149L390.133 959.836L389.684 959.957L389.997 959.613L389.876 959.164L390.22 959.477L390.67 959.356Z" fill="white"/>
<path d="M518.445 864.29L518.132 864.634L518.253 865.083L517.909 864.77L517.46 864.891L517.773 864.547L517.652 864.097L517.996 864.411L518.445 864.29Z" fill="white"/>
<path d="M659.536 989.364L659.223 989.708L659.344 990.157L659 989.844L658.55 989.965L658.864 989.621L658.743 989.172L659.087 989.485L659.536 989.364Z" fill="white"/>
<path d="M559.484 1157.19L559.171 1157.53L559.292 1157.98L558.948 1157.67L558.499 1157.79L558.812 1157.45L558.691 1157L559.035 1157.31L559.484 1157.19Z" fill="white"/>
<path d="M615.132 1282.86L614.818 1283.2L614.939 1283.65L614.595 1283.34L614.146 1283.46L614.459 1283.12L614.338 1282.67L614.682 1282.98L615.132 1282.86Z" fill="white"/>
<path d="M435.716 1275.1L435.402 1275.44L435.523 1275.89L435.179 1275.58L434.73 1275.7L435.043 1275.36L434.922 1274.91L435.266 1275.22L435.716 1275.1Z" fill="white"/>
<path d="M236.036 1221.48L235.723 1221.83L235.844 1222.28L235.5 1221.96L235.05 1222.08L235.364 1221.74L235.243 1221.29L235.587 1221.6L236.036 1221.48Z" fill="white"/>
<path d="M370.442 1021.07L370.129 1021.41L370.25 1021.86L369.906 1021.55L369.457 1021.67L369.77 1021.32L369.649 1020.87L369.993 1021.19L370.442 1021.07Z" fill="white"/>
<path d="M222.361 951.594L222.048 951.938L222.169 952.388L221.825 952.074L221.376 952.195L221.689 951.851L221.568 951.402L221.912 951.715L222.361 951.594Z" fill="white"/>
<path d="M69.2195 1148.48L68.9062 1148.83L69.0273 1149.28L68.6832 1148.96L68.2339 1149.08L68.5472 1148.74L68.4262 1148.29L68.7702 1148.6L69.2195 1148.48Z" fill="white"/>
<path d="M154.397 911.676L154.084 912.02L154.205 912.47L153.861 912.156L153.412 912.277L153.725 911.933L153.604 911.484L153.948 911.797L154.397 911.676Z" fill="white"/>
<path d="M477.587 964.256L477.273 964.6L477.394 965.05L477.05 964.737L476.601 964.858L476.914 964.513L476.793 964.064L477.137 964.377L477.587 964.256Z" fill="white"/>
<path d="M394.322 1088.54L394.009 1088.88L394.13 1089.33L393.786 1089.02L393.336 1089.14L393.65 1088.8L393.529 1088.35L393.873 1088.66L394.322 1088.54Z" fill="white"/>
<path d="M307.413 1146.78L307.1 1147.12L307.221 1147.57L306.877 1147.26L306.427 1147.38L306.741 1147.03L306.62 1146.58L306.964 1146.9L307.413 1146.78Z" fill="white"/>
<path d="M227.387 971.676L227.074 972.02L227.195 972.47L226.851 972.156L226.402 972.277L226.715 971.933L226.594 971.484L226.938 971.797L227.387 971.676Z" fill="white"/>
<path d="M367.419 887.889L367.105 888.233L367.226 888.683L366.882 888.369L366.433 888.49L366.746 888.146L366.625 887.697L366.969 888.01L367.419 887.889Z" fill="white"/>
<path d="M281.98 992.538L281.667 992.882L281.788 993.331L281.444 993.018L280.995 993.139L281.308 992.795L281.187 992.345L281.531 992.659L281.98 992.538Z" fill="white"/>
<path d="M369.925 1254.82L369.611 1255.16L369.732 1255.61L369.388 1255.3L368.939 1255.42L369.252 1255.07L369.131 1254.62L369.475 1254.94L369.925 1254.82Z" fill="white"/>
<path d="M146.391 1271.11L146.078 1271.45L146.199 1271.9L145.855 1271.59L145.406 1271.71L145.719 1271.36L145.598 1270.91L145.942 1271.23L146.391 1271.11Z" fill="white"/>
<path d="M177.785 1060.33L177.472 1060.67L177.593 1061.12L177.249 1060.81L176.799 1060.93L177.113 1060.59L176.992 1060.14L177.336 1060.45L177.785 1060.33Z" fill="white"/>
<path d="M661.115 871.528L660.802 871.872L660.923 872.321L660.579 872.008L660.129 872.129L660.443 871.785L660.322 871.336L660.666 871.649L661.115 871.528Z" fill="white"/>
<path d="M713.374 855.194L713.061 855.538L713.182 855.987L712.838 855.674L712.388 855.795L712.701 855.451L712.58 855.002L712.925 855.315L713.374 855.194Z" fill="white"/>
<path d="M648.772 1306.85L648.459 1307.2L648.58 1307.65L648.236 1307.33L647.787 1307.46L648.1 1307.11L647.979 1306.66L648.323 1306.98L648.772 1306.85Z" fill="white"/>
<path d="M520.398 1357.4L520.085 1357.74L520.206 1358.19L519.862 1357.88L519.413 1358L519.726 1357.66L519.605 1357.21L519.949 1357.52L520.398 1357.4Z" fill="white"/>
<path d="M482.052 1099.41L481.739 1099.76L481.86 1100.21L481.516 1099.89L481.067 1100.01L481.38 1099.67L481.259 1099.22L481.603 1099.53L482.052 1099.41Z" fill="white"/>
<path d="M232.455 1109.13L231.828 1109.82L232.07 1110.71L231.382 1110.09L230.483 1110.33L231.11 1109.64L230.867 1108.74L231.556 1109.37L232.455 1109.13Z" fill="white"/>
<path d="M106.529 989.943L105.902 990.632L106.144 991.531L105.456 990.904L104.557 991.146L105.184 990.457L104.942 989.558L105.63 990.185L106.529 989.943Z" fill="white"/>
<path d="M473.512 879.299L472.885 879.987L473.127 880.886L472.438 880.259L471.539 880.501L472.166 879.813L471.924 878.914L472.613 879.541L473.512 879.299Z" fill="white"/>
<path d="M351.895 786.513L351.268 787.202L351.511 788.101L350.822 787.474L349.923 787.716L350.55 787.028L350.308 786.129L350.996 786.756L351.895 786.513Z" fill="white"/>
<path d="M227.263 768.666L226.637 769.354L226.879 770.253L226.19 769.626L225.291 769.869L225.918 769.18L225.676 768.281L226.364 768.908L227.263 768.666Z" fill="white"/>
<path d="M588.391 806.754L587.765 807.442L588.007 808.341L587.318 807.714L586.419 807.956L587.046 807.268L586.804 806.369L587.492 806.996L588.391 806.754Z" fill="white"/>
<path d="M417.889 1140.04L417.263 1140.73L417.505 1141.63L416.816 1141L415.917 1141.25L416.544 1140.56L416.302 1139.66L416.99 1140.28L417.889 1140.04Z" fill="white"/>
<path d="M21.8514 1063.73L21.2245 1064.42L21.4667 1065.32L20.7783 1064.69L19.8793 1064.93L20.5061 1064.24L20.264 1063.34L20.9524 1063.97L21.8514 1063.73Z" fill="white"/>
<path d="M1887.9 928.552L1887.87 929.017L1887.47 929.249L1887.94 929.271L1888.17 929.674L1888.19 929.209L1888.59 928.977L1888.13 928.955L1887.9 928.552Z" fill="white"/>
<path d="M1779.02 890.284L1779 890.749L1778.6 890.981L1779.06 891.003L1779.3 891.406L1779.32 890.942L1779.72 890.709L1779.26 890.688L1779.02 890.284Z" fill="white"/>
<path d="M1811.21 960.868L1811.18 961.333L1810.78 961.565L1811.25 961.587L1811.48 961.99L1811.5 961.525L1811.9 961.293L1811.44 961.272L1811.21 960.868Z" fill="white"/>
<path d="M1838.5 905.732L1838.48 906.196L1838.07 906.429L1838.54 906.45L1838.77 906.854L1838.79 906.389L1839.19 906.157L1838.73 906.135L1838.5 905.732Z" fill="white"/>
<path d="M1855.68 936.101L1855.65 936.566L1855.25 936.798L1855.72 936.819L1855.95 937.223L1855.97 936.758L1856.37 936.526L1855.91 936.504L1855.68 936.101Z" fill="white"/>
<path d="M1671.8 847.208L1671.78 847.673L1671.38 847.905L1671.84 847.927L1672.08 848.33L1672.1 847.865L1672.5 847.633L1672.04 847.611L1671.8 847.208Z" fill="white"/>
<path d="M1788.85 858.15L1788.83 858.614L1788.43 858.846L1788.89 858.868L1789.12 859.272L1789.15 858.807L1789.55 858.575L1789.08 858.553L1788.85 858.15Z" fill="white"/>
<path d="M1571.2 741.087L1571.18 741.552L1570.78 741.784L1571.24 741.806L1571.47 742.209L1571.49 741.744L1571.9 741.512L1571.43 741.49L1571.2 741.087Z" fill="white"/>
<path d="M1623.75 896.515L1623.73 896.98L1623.33 897.212L1623.79 897.233L1624.03 897.637L1624.05 897.172L1624.45 896.94L1623.99 896.918L1623.75 896.515Z" fill="white"/>
<path d="M1740.71 925.245L1740.68 925.71L1740.28 925.942L1740.75 925.964L1740.98 926.367L1741 925.902L1741.4 925.67L1740.94 925.649L1740.71 925.245Z" fill="white"/>
<path d="M1691.75 1000.32L1691.73 1000.79L1691.32 1001.02L1691.79 1001.04L1692.02 1001.45L1692.04 1000.98L1692.45 1000.75L1691.98 1000.73L1691.75 1000.32Z" fill="white"/>
<path d="M1417.35 790.501L1417.33 790.966L1416.92 791.198L1417.39 791.22L1417.62 791.623L1417.64 791.158L1418.04 790.926L1417.58 790.904L1417.35 790.501Z" fill="white"/>
<path d="M1394.22 632.925L1394.2 633.39L1393.79 633.622L1394.26 633.644L1394.49 634.047L1394.51 633.582L1394.92 633.35L1394.45 633.328L1394.22 632.925Z" fill="white"/>
<path d="M1206.01 621.601L1205.99 622.066L1205.59 622.298L1206.05 622.319L1206.28 622.723L1206.3 622.258L1206.71 622.026L1206.24 622.004L1206.01 621.601Z" fill="white"/>
<path d="M1158.09 811.019L1158.07 811.484L1157.66 811.716L1158.13 811.737L1158.36 812.141L1158.38 811.676L1158.79 811.444L1158.32 811.422L1158.09 811.019Z" fill="white"/>
<path d="M1029.88 860.53L1029.86 860.995L1029.45 861.227L1029.92 861.249L1030.15 861.652L1030.17 861.188L1030.58 860.955L1030.11 860.934L1029.88 860.53Z" fill="white"/>
<path d="M1162.23 981.913L1162.21 982.378L1161.8 982.61L1162.27 982.632L1162.5 983.035L1162.52 982.57L1162.93 982.338L1162.46 982.317L1162.23 981.913Z" fill="white"/>
<path d="M1341.34 1085.19L1341.32 1085.66L1340.91 1085.89L1341.38 1085.91L1341.61 1086.32L1341.63 1085.85L1342.03 1085.62L1341.57 1085.6L1341.34 1085.19Z" fill="white"/>
<path d="M1388.02 848.437L1387.99 848.902L1387.59 849.134L1388.06 849.155L1388.29 849.559L1388.31 849.094L1388.71 848.862L1388.25 848.84L1388.02 848.437Z" fill="white"/>
<path d="M1541.85 904.023L1541.83 904.487L1541.42 904.72L1541.89 904.741L1542.12 905.145L1542.14 904.68L1542.55 904.448L1542.08 904.426L1541.85 904.023Z" fill="white"/>
<path d="M1510.92 1151.53L1510.89 1152L1510.49 1152.23L1510.96 1152.25L1511.19 1152.65L1511.21 1152.19L1511.61 1151.96L1511.15 1151.93L1510.92 1151.53Z" fill="white"/>
<path d="M1663.11 1180.92L1663.09 1181.38L1662.68 1181.62L1663.15 1181.64L1663.38 1182.04L1663.4 1181.58L1663.8 1181.34L1663.34 1181.32L1663.11 1180.92Z" fill="white"/>
<path d="M1779.67 1017.91L1779.65 1018.38L1779.24 1018.61L1779.71 1018.63L1779.94 1019.04L1779.96 1018.57L1780.37 1018.34L1779.9 1018.32L1779.67 1017.91Z" fill="white"/>
<path d="M1618.13 923.855L1618.11 924.319L1617.71 924.552L1618.17 924.573L1618.4 924.977L1618.43 924.512L1618.83 924.28L1618.36 924.258L1618.13 923.855Z" fill="white"/>
<path d="M1352.42 732.505L1352.4 732.97L1352 733.202L1352.46 733.224L1352.69 733.627L1352.72 733.162L1353.12 732.93L1352.65 732.908L1352.42 732.505Z" fill="white"/>
<path d="M1323.42 879.265L1323.4 879.73L1322.99 879.962L1323.46 879.983L1323.69 880.387L1323.71 879.922L1324.12 879.69L1323.65 879.668L1323.42 879.265Z" fill="white"/>
<path d="M1343.69 981.896L1343.67 982.36L1343.27 982.593L1343.73 982.614L1343.97 983.018L1343.99 982.553L1344.39 982.321L1343.93 982.299L1343.69 981.896Z" fill="white"/>
<path d="M1524.09 914.667L1524.07 915.132L1523.67 915.364L1524.13 915.386L1524.37 915.789L1524.39 915.324L1524.79 915.092L1524.33 915.07L1524.09 914.667Z" fill="white"/>
<path d="M1484.32 756.405L1484.3 756.87L1483.9 757.102L1484.36 757.124L1484.6 757.527L1484.62 757.063L1485.02 756.83L1484.56 756.809L1484.32 756.405Z" fill="white"/>
<path d="M1610.35 1216.09L1610.33 1216.55L1609.93 1216.78L1610.39 1216.8L1610.63 1217.21L1610.65 1216.74L1611.05 1216.51L1610.59 1216.49L1610.35 1216.09Z" fill="white"/>
<path d="M1724.22 1083.26L1724.2 1083.73L1723.8 1083.96L1724.26 1083.98L1724.49 1084.38L1724.51 1083.92L1724.92 1083.69L1724.45 1083.67L1724.22 1083.26Z" fill="white"/>
<path d="M1470.74 890.818L1470.72 891.282L1470.31 891.514L1470.78 891.536L1471.01 891.939L1471.03 891.475L1471.44 891.243L1470.97 891.221L1470.74 890.818Z" fill="white"/>
<path d="M1223.09 1014.09L1223.07 1014.55L1222.67 1014.79L1223.13 1014.81L1223.37 1015.21L1223.39 1014.75L1223.79 1014.51L1223.33 1014.49L1223.09 1014.09Z" fill="white"/>
<path d="M1369.64 1183.67L1369.62 1184.13L1369.21 1184.37L1369.68 1184.39L1369.91 1184.79L1369.93 1184.33L1370.34 1184.09L1369.87 1184.07L1369.64 1183.67Z" fill="white"/>
<path d="M1496.48 1012.43L1496.46 1012.9L1496.05 1013.13L1496.52 1013.15L1496.75 1013.55L1496.77 1013.09L1497.18 1012.86L1496.71 1012.83L1496.48 1012.43Z" fill="white"/>
<path d="M1288.22 537.161L1288.2 537.626L1287.79 537.858L1288.26 537.88L1288.49 538.283L1288.51 537.818L1288.92 537.586L1288.45 537.565L1288.22 537.161Z" fill="white"/>
<path d="M1262.82 488.659L1262.8 489.124L1262.39 489.356L1262.86 489.378L1263.09 489.781L1263.11 489.317L1263.51 489.084L1263.05 489.063L1262.82 488.659Z" fill="white"/>
<path d="M989.125 853.712L989.103 854.177L988.7 854.409L989.164 854.431L989.396 854.834L989.418 854.369L989.821 854.137L989.357 854.115L989.125 853.712Z" fill="white"/>
<path d="M1044.16 980.228L1044.13 980.693L1043.73 980.925L1044.2 980.946L1044.43 981.35L1044.45 980.885L1044.85 980.653L1044.39 980.631L1044.16 980.228Z" fill="white"/>
<path d="M1253.69 824.917L1253.67 825.382L1253.27 825.614L1253.73 825.636L1253.97 826.039L1253.99 825.574L1254.39 825.342L1253.93 825.32L1253.69 824.917Z" fill="white"/>
<path d="M1423.32 1008.28L1423.27 1009.21L1422.47 1009.67L1423.4 1009.72L1423.86 1010.52L1423.91 1009.59L1424.71 1009.13L1423.78 1009.08L1423.32 1008.28Z" fill="white"/>
<path d="M1596.64 1013.05L1596.59 1013.98L1595.79 1014.44L1596.72 1014.48L1597.18 1015.29L1597.22 1014.36L1598.03 1013.9L1597.1 1013.85L1596.64 1013.05Z" fill="white"/>
<path d="M1415.38 675.313L1415.34 676.243L1414.53 676.707L1415.46 676.751L1415.92 677.558L1415.97 676.628L1416.77 676.164L1415.84 676.12L1415.38 675.313Z" fill="white"/>
<path d="M1566.98 695.7L1566.94 696.63L1566.13 697.094L1567.06 697.138L1567.53 697.945L1567.57 697.015L1568.38 696.55L1567.45 696.507L1566.98 695.7Z" fill="white"/>
<path d="M1667.73 771.208L1667.69 772.138L1666.88 772.602L1667.81 772.646L1668.28 773.453L1668.32 772.522L1669.13 772.058L1668.2 772.014L1667.73 771.208Z" fill="white"/>
<path d="M1385.44 542.784L1385.4 543.714L1384.59 544.178L1385.52 544.222L1385.99 545.029L1386.03 544.099L1386.84 543.634L1385.91 543.591L1385.44 542.784Z" fill="white"/>
<path d="M1270.33 899.018L1270.29 899.948L1269.48 900.413L1270.41 900.456L1270.88 901.263L1270.92 900.333L1271.73 899.869L1270.8 899.825L1270.33 899.018Z" fill="white"/>
<path d="M1604.34 1125.09L1604.29 1126.02L1603.49 1126.49L1604.42 1126.53L1604.88 1127.34L1604.93 1126.41L1605.73 1125.94L1604.8 1125.9L1604.34 1125.09Z" fill="white"/>
<path d="M1512.32 1283.83L1512.28 1284.76L1511.47 1285.23L1512.4 1285.27L1512.86 1286.08L1512.91 1285.15L1513.71 1284.68L1512.78 1284.64L1512.32 1283.83Z" fill="white"/>
<path d="M1691.15 1146.16L1691.11 1147.09L1690.3 1147.56L1691.23 1147.6L1691.69 1148.41L1691.74 1147.48L1692.55 1147.02L1691.62 1146.97L1691.15 1146.16Z" fill="white"/>
<path d="M1589.88 1296.02L1589.84 1296.95L1589.03 1297.42L1589.96 1297.46L1590.43 1298.27L1590.47 1297.34L1591.28 1296.87L1590.35 1296.83L1589.88 1296.02Z" fill="white"/>
<path d="M1793.23 1054.05L1793.19 1054.98L1792.38 1055.45L1793.31 1055.49L1793.78 1056.3L1793.82 1055.37L1794.63 1054.9L1793.7 1054.86L1793.23 1054.05Z" fill="white"/>
<path d="M1744.69 601.395L1745.01 601.739L1744.88 602.188L1745.23 601.875L1745.68 601.996L1745.36 601.652L1745.49 601.203L1745.14 601.516L1744.69 601.395Z" fill="white"/>
<path d="M1640.65 651.319L1640.96 651.663L1640.84 652.112L1641.19 651.799L1641.64 651.92L1641.32 651.576L1641.44 651.127L1641.1 651.44L1640.65 651.319Z" fill="white"/>
<path d="M1713.32 678.473L1713.63 678.817L1713.51 679.267L1713.85 678.953L1714.3 679.074L1713.99 678.73L1714.11 678.281L1713.77 678.594L1713.32 678.473Z" fill="white"/>
<path d="M1693.63 620.188L1693.94 620.532L1693.82 620.981L1694.16 620.668L1694.61 620.789L1694.3 620.445L1694.42 619.996L1694.08 620.309L1693.63 620.188Z" fill="white"/>
<path d="M1727.25 629.516L1727.56 629.86L1727.44 630.31L1727.78 629.996L1728.23 630.117L1727.92 629.773L1728.04 629.324L1727.7 629.637L1727.25 629.516Z" fill="white"/>
<path d="M1534.37 696.678L1534.69 697.022L1534.57 697.472L1534.91 697.158L1535.36 697.279L1535.05 696.935L1535.17 696.486L1534.82 696.799L1534.37 696.678Z" fill="white"/>
<path d="M1624.88 621.647L1625.19 621.991L1625.07 622.44L1625.41 622.127L1625.86 622.248L1625.55 621.904L1625.67 621.455L1625.32 621.768L1624.88 621.647Z" fill="white"/>
<path d="M1388.2 692.776L1388.51 693.12L1388.39 693.569L1388.73 693.256L1389.18 693.377L1388.87 693.033L1388.99 692.584L1388.65 692.897L1388.2 692.776Z" fill="white"/>
<path d="M1535.26 765.518L1535.58 765.862L1535.45 766.311L1535.8 765.998L1536.25 766.119L1535.93 765.775L1536.06 765.326L1535.71 765.639L1535.26 765.518Z" fill="white"/>
<path d="M1638.28 703.135L1638.59 703.479L1638.47 703.929L1638.81 703.615L1639.26 703.736L1638.95 703.392L1639.07 702.943L1638.73 703.256L1638.28 703.135Z" fill="white"/>
<path d="M1656.75 790.84L1657.06 791.184L1656.94 791.634L1657.28 791.32L1657.73 791.442L1657.42 791.097L1657.54 790.648L1657.2 790.961L1656.75 790.84Z" fill="white"/>
<path d="M1314.35 836.504L1314.66 836.849L1314.54 837.298L1314.88 836.985L1315.33 837.106L1315.02 836.762L1315.14 836.312L1314.8 836.626L1314.35 836.504Z" fill="white"/>
<path d="M1186.57 741.438L1186.88 741.782L1186.76 742.231L1187.11 741.918L1187.56 742.039L1187.24 741.695L1187.36 741.246L1187.02 741.559L1186.57 741.438Z" fill="white"/>
<path d="M1045.48 866.512L1045.79 866.856L1045.67 867.306L1046.02 866.992L1046.47 867.113L1046.15 866.769L1046.27 866.32L1045.93 866.633L1045.48 866.512Z" fill="white"/>
<path d="M1145.53 1034.34L1145.85 1034.68L1145.72 1035.13L1146.07 1034.82L1146.52 1034.94L1146.2 1034.6L1146.33 1034.15L1145.98 1034.46L1145.53 1034.34Z" fill="white"/>
<path d="M1089.89 1160.01L1090.2 1160.35L1090.08 1160.8L1090.42 1160.49L1090.87 1160.61L1090.56 1160.26L1090.68 1159.81L1090.33 1160.13L1089.89 1160.01Z" fill="white"/>
<path d="M1269.3 1152.25L1269.61 1152.59L1269.49 1153.04L1269.84 1152.73L1270.29 1152.85L1269.97 1152.51L1270.09 1152.06L1269.75 1152.37L1269.3 1152.25Z" fill="white"/>
<path d="M1468.98 1098.63L1469.29 1098.98L1469.17 1099.42L1469.52 1099.11L1469.97 1099.23L1469.65 1098.89L1469.77 1098.44L1469.43 1098.75L1468.98 1098.63Z" fill="white"/>
<path d="M1334.57 898.213L1334.89 898.558L1334.77 899.007L1335.11 898.694L1335.56 898.815L1335.25 898.471L1335.37 898.021L1335.02 898.335L1334.57 898.213Z" fill="white"/>
<path d="M1482.66 828.743L1482.97 829.087L1482.85 829.536L1483.19 829.223L1483.64 829.344L1483.33 829L1483.45 828.551L1483.1 828.864L1482.66 828.743Z" fill="white"/>
<path d="M1635.8 1025.63L1636.11 1025.98L1635.99 1026.42L1636.33 1026.11L1636.78 1026.23L1636.47 1025.89L1636.59 1025.44L1636.25 1025.75L1635.8 1025.63Z" fill="white"/>
<path d="M1764.19 938.796L1764.51 939.14L1764.39 939.589L1764.73 939.276L1765.18 939.397L1764.87 939.053L1764.99 938.603L1764.64 938.917L1764.19 938.796Z" fill="white"/>
<path d="M1731.35 741.11L1731.66 741.454L1731.54 741.903L1731.89 741.59L1732.34 741.711L1732.02 741.367L1732.14 740.918L1731.8 741.231L1731.35 741.11Z" fill="white"/>
<path d="M1550.62 788.825L1550.93 789.169L1550.81 789.618L1551.16 789.305L1551.6 789.426L1551.29 789.082L1551.41 788.633L1551.07 788.946L1550.62 788.825Z" fill="white"/>
<path d="M1227.43 841.405L1227.74 841.749L1227.62 842.198L1227.97 841.885L1228.42 842.006L1228.1 841.662L1228.22 841.213L1227.88 841.526L1227.43 841.405Z" fill="white"/>
<path d="M1310.69 965.688L1311.01 966.032L1310.89 966.481L1311.23 966.168L1311.68 966.289L1311.37 965.945L1311.49 965.496L1311.14 965.809L1310.69 965.688Z" fill="white"/>
<path d="M1397.6 1023.92L1397.92 1024.27L1397.8 1024.72L1398.14 1024.4L1398.59 1024.53L1398.28 1024.18L1398.4 1023.73L1398.05 1024.05L1397.6 1023.92Z" fill="white"/>
<path d="M1477.63 848.825L1477.94 849.169L1477.82 849.618L1478.17 849.305L1478.61 849.426L1478.3 849.082L1478.42 848.633L1478.08 848.946L1477.63 848.825Z" fill="white"/>
<path d="M1337.6 765.038L1337.91 765.382L1337.79 765.831L1338.13 765.518L1338.58 765.639L1338.27 765.295L1338.39 764.845L1338.05 765.159L1337.6 765.038Z" fill="white"/>
<path d="M1751.76 1000.96L1752.07 1001.31L1751.95 1001.76L1752.29 1001.44L1752.74 1001.56L1752.43 1001.22L1752.55 1000.77L1752.21 1001.08L1751.76 1000.96Z" fill="white"/>
<path d="M1738.35 826.528L1738.67 826.872L1738.55 827.321L1738.89 827.008L1739.34 827.129L1739.03 826.785L1739.15 826.336L1738.8 826.649L1738.35 826.528Z" fill="white"/>
<path d="M1423.04 869.686L1423.35 870.03L1423.23 870.479L1423.57 870.166L1424.02 870.287L1423.71 869.943L1423.83 869.494L1423.49 869.807L1423.04 869.686Z" fill="white"/>
<path d="M1335.09 1131.97L1335.41 1132.31L1335.28 1132.76L1335.63 1132.45L1336.08 1132.57L1335.76 1132.22L1335.89 1131.77L1335.54 1132.09L1335.09 1131.97Z" fill="white"/>
<path d="M1558.63 1148.25L1558.94 1148.6L1558.82 1149.05L1559.16 1148.73L1559.61 1148.86L1559.3 1148.51L1559.42 1148.06L1559.07 1148.38L1558.63 1148.25Z" fill="white"/>
<path d="M1527.23 937.479L1527.54 937.823L1527.42 938.272L1527.77 937.959L1528.22 938.08L1527.9 937.736L1528.03 937.287L1527.68 937.6L1527.23 937.479Z" fill="white"/>
<path d="M1043.9 748.676L1044.21 749.02L1044.09 749.47L1044.44 749.156L1044.89 749.277L1044.57 748.933L1044.69 748.484L1044.35 748.797L1043.9 748.676Z" fill="white"/>
<path d="M991.643 732.342L991.956 732.686L991.835 733.136L992.179 732.822L992.628 732.943L992.315 732.599L992.436 732.15L992.092 732.463L991.643 732.342Z" fill="white"/>
<path d="M1056.24 1184L1056.56 1184.35L1056.44 1184.8L1056.78 1184.48L1057.23 1184.6L1056.92 1184.26L1057.04 1183.81L1056.69 1184.12L1056.24 1184Z" fill="white"/>
<path d="M1184.62 1234.55L1184.93 1234.89L1184.81 1235.34L1185.15 1235.03L1185.6 1235.15L1185.29 1234.8L1185.41 1234.36L1185.07 1234.67L1184.62 1234.55Z" fill="white"/>
<path d="M1222.96 976.561L1223.28 976.905L1223.16 977.354L1223.5 977.041L1223.95 977.162L1223.64 976.818L1223.76 976.369L1223.41 976.682L1222.96 976.561Z" fill="white"/>
<path d="M1472.56 986.275L1473.19 986.964L1472.95 987.863L1473.63 987.236L1474.53 987.478L1473.91 986.789L1474.15 985.89L1473.46 986.517L1472.56 986.275Z" fill="white"/>
<path d="M1598.49 867.092L1599.11 867.78L1598.87 868.679L1599.56 868.052L1600.46 868.294L1599.83 867.606L1600.07 866.707L1599.39 867.334L1598.49 867.092Z" fill="white"/>
<path d="M1231.51 756.447L1232.13 757.135L1231.89 758.034L1232.58 757.408L1233.48 757.65L1232.85 756.961L1233.09 756.062L1232.4 756.689L1231.51 756.447Z" fill="white"/>
<path d="M1353.12 663.662L1353.75 664.35L1353.51 665.249L1354.19 664.622L1355.09 664.865L1354.47 664.176L1354.71 663.277L1354.02 663.904L1353.12 663.662Z" fill="white"/>
<path d="M1477.75 645.814L1478.38 646.503L1478.14 647.402L1478.83 646.775L1479.73 647.017L1479.1 646.329L1479.34 645.43L1478.65 646.056L1477.75 645.814Z" fill="white"/>
<path d="M1116.63 683.902L1117.25 684.59L1117.01 685.489L1117.7 684.863L1118.6 685.105L1117.97 684.416L1118.21 683.517L1117.52 684.144L1116.63 683.902Z" fill="white"/>
<path d="M1287.13 1017.19L1287.75 1017.88L1287.51 1018.78L1288.2 1018.15L1289.1 1018.39L1288.47 1017.71L1288.71 1016.81L1288.03 1017.43L1287.13 1017.19Z" fill="white"/>
<path d="M1683.16 940.877L1683.79 941.565L1683.55 942.464L1684.24 941.837L1685.14 942.079L1684.51 941.391L1684.75 940.492L1684.06 941.119L1683.16 940.877Z" fill="white"/>
<path d="M1730.34 1118.19L1730.97 1118.87L1730.73 1119.77L1731.41 1119.15L1732.31 1119.39L1731.69 1118.7L1731.93 1117.8L1731.24 1118.43L1730.34 1118.19Z" fill="white"/>
<path d="M1759.45 894.39L1760.08 895.079L1759.83 895.978L1760.52 895.351L1761.42 895.593L1760.79 894.905L1761.04 894.006L1760.35 894.633L1759.45 894.39Z" fill="white"/>
<path d="M1793.8 1071.96L1794.43 1072.65L1794.19 1073.55L1794.88 1072.92L1795.78 1073.17L1795.15 1072.48L1795.39 1071.58L1794.7 1072.2L1793.8 1071.96Z" fill="white"/>
<path d="M1766.5 757.074L1767.12 757.762L1766.88 758.661L1767.57 758.035L1768.47 758.277L1767.84 757.588L1768.08 756.689L1767.4 757.316L1766.5 757.074Z" fill="white"/>
<path d="M1325.72 1688.06L1325.97 1688.45L1325.78 1688.87L1326.17 1688.62L1326.6 1688.81L1326.34 1688.42L1326.53 1687.99L1326.14 1688.25L1325.72 1688.06Z" fill="white"/>
<path d="M1215.18 1721.21L1215.44 1721.6L1215.25 1722.03L1215.63 1721.77L1216.06 1721.96L1215.8 1721.57L1215.99 1721.15L1215.6 1721.4L1215.18 1721.21Z" fill="white"/>
<path d="M1282.74 1759.33L1283 1759.72L1282.81 1760.14L1283.2 1759.88L1283.62 1760.07L1283.37 1759.69L1283.56 1759.26L1283.17 1759.52L1282.74 1759.33Z" fill="white"/>
<path d="M1272.35 1698.69L1272.61 1699.08L1272.42 1699.51L1272.8 1699.25L1273.23 1699.44L1272.97 1699.05L1273.16 1698.63L1272.77 1698.88L1272.35 1698.69Z" fill="white"/>
<path d="M1304.11 1713.13L1304.37 1713.52L1304.18 1713.94L1304.57 1713.69L1304.99 1713.87L1304.74 1713.49L1304.93 1713.06L1304.54 1713.32L1304.11 1713.13Z" fill="white"/>
<path d="M1103.15 1749.51L1103.4 1749.9L1103.21 1750.32L1103.6 1750.07L1104.03 1750.26L1103.77 1749.87L1103.96 1749.44L1103.57 1749.7L1103.15 1749.51Z" fill="white"/>
<path d="M1204.21 1689.45L1204.46 1689.84L1204.27 1690.27L1204.66 1690.01L1205.09 1690.2L1204.83 1689.81L1205.02 1689.39L1204.63 1689.64L1204.21 1689.45Z" fill="white"/>
<path d="M959.352 1722.95L959.608 1723.33L959.419 1723.76L959.807 1723.5L960.232 1723.69L959.976 1723.3L960.166 1722.88L959.777 1723.14L959.352 1722.95Z" fill="white"/>
<path d="M1093.33 1817.65L1093.58 1818.04L1093.4 1818.47L1093.78 1818.21L1094.21 1818.4L1093.95 1818.01L1094.14 1817.59L1093.75 1817.84L1093.33 1817.65Z" fill="white"/>
<path d="M1204.78 1772.03L1205.04 1772.42L1204.85 1772.85L1205.24 1772.59L1205.66 1772.78L1205.41 1772.39L1205.6 1771.97L1205.21 1772.22L1204.78 1772.03Z" fill="white"/>
<path d="M1209.4 1861.54L1209.66 1861.93L1209.47 1862.36L1209.86 1862.1L1210.28 1862.29L1210.03 1861.9L1210.22 1861.48L1209.83 1861.73L1209.4 1861.54Z" fill="white"/>
<path d="M864.068 1853.46L864.324 1853.85L864.135 1854.27L864.523 1854.02L864.948 1854.2L864.692 1853.82L864.882 1853.39L864.493 1853.65L864.068 1853.46Z" fill="white"/>
<path d="M752.613 1739.69L752.869 1740.08L752.68 1740.51L753.068 1740.25L753.493 1740.44L753.237 1740.05L753.426 1739.63L753.038 1739.88L752.613 1739.69Z" fill="white"/>
<path d="M593.804 1841.33L594.06 1841.72L593.871 1842.14L594.259 1841.89L594.684 1842.08L594.428 1841.69L594.618 1841.26L594.229 1841.52L593.804 1841.33Z" fill="white"/>
<path d="M666.568 2022.66L666.824 2023.05L666.635 2023.47L667.023 2023.22L667.448 2023.41L667.192 2023.02L667.382 2022.59L666.993 2022.85L666.568 2022.66Z" fill="white"/>
<path d="M592.072 2138.16L592.328 2138.55L592.139 2138.97L592.527 2138.72L592.952 2138.91L592.696 2138.52L592.885 2138.09L592.497 2138.35L592.072 2138.16Z" fill="white"/>
<path d="M770.515 2158.37L770.771 2158.76L770.582 2159.18L770.97 2158.93L771.395 2159.12L771.139 2158.73L771.329 2158.3L770.94 2158.56L770.515 2158.37Z" fill="white"/>
<path d="M976.1 2136.43L976.356 2136.81L976.167 2137.24L976.555 2136.98L976.98 2137.17L976.724 2136.78L976.914 2136.36L976.525 2136.62L976.1 2136.43Z" fill="white"/>
<path d="M874.462 1917.56L874.718 1917.95L874.528 1918.37L874.917 1918.11L875.342 1918.3L875.086 1917.92L875.275 1917.49L874.887 1917.75L874.462 1917.56Z" fill="white"/>
<path d="M1031.54 1871.94L1031.79 1872.33L1031.61 1872.75L1031.99 1872.5L1032.42 1872.69L1032.16 1872.3L1032.35 1871.87L1031.96 1872.13L1031.54 1871.94Z" fill="white"/>
<path d="M1152.23 2090.23L1152.49 2090.61L1152.3 2091.04L1152.69 2090.78L1153.11 2090.97L1152.86 2090.58L1153.05 2090.16L1152.66 2090.41L1152.23 2090.23Z" fill="white"/>
<path d="M1292.56 2024.39L1292.82 2024.78L1292.63 2025.21L1293.02 2024.95L1293.44 2025.14L1293.19 2024.75L1293.37 2024.33L1292.99 2024.58L1292.56 2024.39Z" fill="white"/>
<path d="M1290.83 1824.01L1291.09 1824.4L1290.9 1824.82L1291.29 1824.56L1291.71 1824.75L1291.45 1824.36L1291.64 1823.94L1291.26 1824.2L1290.83 1824.01Z" fill="white"/>
<path d="M1104.88 1843.06L1105.14 1843.45L1104.95 1843.88L1105.33 1843.62L1105.76 1843.81L1105.5 1843.42L1105.69 1843L1105.3 1843.25L1104.88 1843.06Z" fill="white"/>
<path d="M777.445 1844.8L777.701 1845.18L777.512 1845.61L777.9 1845.35L778.325 1845.54L778.069 1845.15L778.258 1844.73L777.87 1844.98L777.445 1844.8Z" fill="white"/>
<path d="M840.391 1980.5L840.647 1980.89L840.458 1981.32L840.846 1981.06L841.271 1981.25L841.015 1980.86L841.205 1980.44L840.816 1980.69L840.391 1980.5Z" fill="white"/>
<path d="M917.197 2051.54L917.453 2051.92L917.264 2052.35L917.652 2052.09L918.077 2052.28L917.821 2051.89L918.01 2051.47L917.622 2051.73L917.197 2051.54Z" fill="white"/>
<path d="M1023.45 1890.99L1023.71 1891.38L1023.52 1891.81L1023.91 1891.55L1024.33 1891.74L1024.08 1891.35L1024.27 1890.93L1023.88 1891.18L1023.45 1890.99Z" fill="white"/>
<path d="M898.139 1786.47L898.395 1786.86L898.206 1787.28L898.594 1787.03L899.019 1787.22L898.763 1786.83L898.953 1786.4L898.564 1786.66L898.139 1786.47Z" fill="white"/>
<path d="M1270.62 2083.87L1270.87 2084.26L1270.68 2084.69L1271.07 2084.43L1271.5 2084.62L1271.24 2084.23L1271.43 2083.81L1271.04 2084.06L1270.62 2083.87Z" fill="white"/>
<path d="M1284.48 1909.47L1284.73 1909.86L1284.54 1910.29L1284.93 1910.03L1285.36 1910.22L1285.1 1909.83L1285.29 1909.41L1284.9 1909.66L1284.48 1909.47Z" fill="white"/>
<path d="M966.283 1903.12L966.539 1903.51L966.349 1903.94L966.738 1903.68L967.163 1903.87L966.907 1903.48L967.096 1903.06L966.708 1903.31L966.283 1903.12Z" fill="white"/>
<path d="M838.658 2148.55L838.914 2148.94L838.724 2149.37L839.113 2149.11L839.538 2149.3L839.282 2148.91L839.471 2148.49L839.083 2148.74L838.658 2148.55Z" fill="white"/>
<path d="M1056.95 2199.37L1057.2 2199.76L1057.01 2200.19L1057.4 2199.93L1057.83 2200.12L1057.57 2199.73L1057.76 2199.31L1057.37 2199.56L1056.95 2199.37Z" fill="white"/>
<path d="M1058.68 1986.28L1058.94 1986.67L1058.75 1987.09L1059.13 1986.84L1059.56 1987.03L1059.3 1986.64L1059.49 1986.21L1059.1 1986.47L1058.68 1986.28Z" fill="white"/>
<path d="M610.552 1724.68L610.808 1725.07L610.619 1725.49L611.008 1725.24L611.433 1725.43L611.177 1725.04L611.366 1724.61L610.977 1724.87L610.552 1724.68Z" fill="white"/>
<path d="M561.465 1700.42L561.721 1700.81L561.532 1701.24L561.921 1700.98L562.346 1701.17L562.09 1700.78L562.279 1700.36L561.89 1700.61L561.465 1700.42Z" fill="white"/>
<path d="M555.113 2156.64L555.369 2157.03L555.18 2157.45L555.568 2157.19L555.993 2157.38L555.737 2157L555.926 2156.57L555.538 2156.83L555.113 2156.64Z" fill="white"/>
<path d="M674.075 2226.51L674.331 2226.9L674.141 2227.33L674.53 2227.07L674.955 2227.26L674.699 2226.87L674.888 2226.45L674.5 2226.7L674.075 2226.51Z" fill="white"/>
<path d="M752.036 1977.62L752.292 1978.01L752.102 1978.43L752.491 1978.18L752.916 1978.36L752.66 1977.98L752.849 1977.55L752.461 1977.81L752.036 1977.62Z" fill="white"/>
<path d="M997.093 2025.99L997.605 2026.77L997.226 2027.62L998.003 2027.11L998.854 2027.48L998.342 2026.71L998.72 2025.86L997.943 2026.37L997.093 2025.99Z" fill="white"/>
<path d="M1140.01 1927.82L1140.52 1928.59L1140.14 1929.44L1140.92 1928.93L1141.77 1929.31L1141.25 1928.53L1141.63 1927.68L1140.86 1928.2L1140.01 1927.82Z" fill="white"/>
<path d="M794.67 1761.5L795.182 1762.28L794.803 1763.13L795.581 1762.62L796.431 1763L795.919 1762.22L796.298 1761.37L795.52 1761.88L794.67 1761.5Z" fill="white"/>
<path d="M929.224 1688.74L929.737 1689.52L929.358 1690.37L930.135 1689.85L930.986 1690.23L930.473 1689.46L930.852 1688.6L930.075 1689.12L929.224 1688.74Z" fill="white"/>
<path d="M1055.12 1690.47L1055.63 1691.25L1055.25 1692.1L1056.03 1691.59L1056.88 1691.97L1056.37 1691.19L1056.74 1690.34L1055.97 1690.85L1055.12 1690.47Z" fill="white"/>
<path d="M692.455 1671.99L692.967 1672.77L692.588 1673.62L693.366 1673.11L694.216 1673.48L693.704 1672.71L694.083 1671.86L693.305 1672.37L692.455 1671.99Z" fill="white"/>
<path d="M809.107 2027.72L809.62 2028.5L809.241 2029.35L810.018 2028.84L810.869 2029.22L810.356 2028.44L810.735 2027.59L809.958 2028.1L809.107 2027.72Z" fill="white"/>
<path d="M1212.19 2013.86L1212.7 2014.64L1212.32 2015.49L1213.1 2014.98L1213.95 2015.36L1213.44 2014.58L1213.82 2013.73L1213.04 2014.24L1212.19 2013.86Z" fill="white"/>
<path d="M1231.25 2196.35L1231.76 2197.12L1231.38 2197.98L1232.16 2197.46L1233.01 2197.84L1232.5 2197.06L1232.88 2196.21L1232.1 2196.73L1231.25 2196.35Z" fill="white"/>
<path d="M1294.77 1979.79L1295.28 1980.57L1294.91 1981.42L1295.68 1980.91L1296.53 1981.29L1296.02 1980.51L1296.4 1979.66L1295.62 1980.17L1294.77 1979.79Z" fill="white"/>
<path d="M1301.12 2160.54L1301.64 2161.32L1301.26 2162.17L1302.04 2161.66L1302.89 2162.04L1302.37 2161.26L1302.75 2160.41L1301.98 2160.92L1301.12 2160.54Z" fill="white"/>
<path d="M1323.07 1845.24L1323.58 1846.01L1323.2 1846.86L1323.98 1846.35L1324.83 1846.73L1324.32 1845.95L1324.7 1845.1L1323.92 1845.62L1323.07 1845.24Z" fill="white"/>
<path d="M1017.37 1507.89L1017.82 1507.99L1017.99 1508.42L1018.08 1507.97L1018.52 1507.8L1018.06 1507.71L1017.9 1507.27L1017.8 1507.73L1017.37 1507.89Z" fill="white"/>
<path d="M962.65 1609.5L963.105 1609.59L963.272 1610.02L963.366 1609.57L963.8 1609.4L963.344 1609.31L963.178 1608.87L963.084 1609.33L962.65 1609.5Z" fill="white"/>
<path d="M1037.38 1588.67L1037.83 1588.76L1038 1589.2L1038.09 1588.74L1038.53 1588.58L1038.07 1588.48L1037.91 1588.05L1037.81 1588.5L1037.38 1588.67Z" fill="white"/>
<path d="M987.15 1553.14L987.605 1553.24L987.772 1553.67L987.866 1553.22L988.3 1553.05L987.844 1552.96L987.678 1552.52L987.584 1552.98L987.15 1553.14Z" fill="white"/>
<path d="M1019.82 1540.89L1020.27 1540.99L1020.44 1541.42L1020.53 1540.97L1020.97 1540.8L1020.51 1540.71L1020.35 1540.27L1020.25 1540.73L1019.82 1540.89Z" fill="white"/>
<path d="M903.44 1708.72L903.895 1708.82L904.062 1709.25L904.156 1708.8L904.59 1708.63L904.134 1708.54L903.968 1708.1L903.874 1708.56L903.44 1708.72Z" fill="white"/>
<path d="M932.432 1594.8L932.888 1594.89L933.054 1595.32L933.148 1594.87L933.582 1594.7L933.127 1594.61L932.96 1594.17L932.866 1594.63L932.432 1594.8Z" fill="white"/>
<path d="M782.978 1791.62L783.434 1791.71L783.6 1792.15L783.694 1791.69L784.128 1791.52L783.673 1791.43L783.506 1791L783.412 1791.45L782.978 1791.62Z" fill="white"/>
<path d="M944.683 1763.85L945.139 1763.94L945.305 1764.38L945.399 1763.92L945.833 1763.76L945.378 1763.66L945.211 1763.23L945.117 1763.68L944.683 1763.85Z" fill="white"/>
<path d="M991.234 1652.78L991.689 1652.87L991.856 1653.31L991.95 1652.85L992.384 1652.69L991.928 1652.59L991.762 1652.16L991.668 1652.61L991.234 1652.78Z" fill="white"/>
<path d="M1057.79 1712.81L1058.25 1712.9L1058.42 1713.33L1058.51 1712.88L1058.94 1712.71L1058.49 1712.62L1058.32 1712.18L1058.23 1712.64L1057.79 1712.81Z" fill="white"/>
<path d="M807.887 1951.28L808.343 1951.37L808.509 1951.81L808.603 1951.35L809.038 1951.19L808.582 1951.09L808.415 1950.66L808.321 1951.11L807.887 1951.28Z" fill="white"/>
<path d="M648.633 1949.65L649.089 1949.74L649.255 1950.17L649.349 1949.72L649.784 1949.55L649.328 1949.46L649.161 1949.02L649.068 1949.48L648.633 1949.65Z" fill="white"/>
<path d="M608.207 2133.81L608.663 2133.9L608.83 2134.34L608.923 2133.88L609.358 2133.72L608.902 2133.62L608.735 2133.19L608.642 2133.64L608.207 2133.81Z" fill="white"/>
<path d="M787.879 2210.58L788.335 2210.67L788.502 2211.11L788.595 2210.65L789.03 2210.48L788.574 2210.39L788.407 2209.96L788.314 2210.41L787.879 2210.58Z" fill="white"/>
<path d="M816.871 2344.92L817.327 2345.02L817.494 2345.45L817.587 2345L818.022 2344.83L817.566 2344.73L817.399 2344.3L817.306 2344.76L816.871 2344.92Z" fill="white"/>
<path d="M957.341 2233.04L957.797 2233.13L957.963 2233.56L958.057 2233.11L958.492 2232.94L958.036 2232.85L957.869 2232.41L957.776 2232.87L957.341 2233.04Z" fill="white"/>
<path d="M1087.19 2072.15L1087.65 2072.24L1087.82 2072.68L1087.91 2072.22L1088.35 2072.06L1087.89 2071.96L1087.72 2071.53L1087.63 2071.98L1087.19 2072.15Z" fill="white"/>
<path d="M860.564 1989.26L861.019 1989.35L861.186 1989.79L861.28 1989.33L861.714 1989.16L861.259 1989.07L861.092 1988.63L860.998 1989.09L860.564 1989.26Z" fill="white"/>
<path d="M939.374 1845.93L939.83 1846.02L939.997 1846.45L940.09 1846L940.525 1845.83L940.069 1845.74L939.902 1845.3L939.809 1845.76L939.374 1845.93Z" fill="white"/>
<path d="M1179.07 1914.94L1179.53 1915.03L1179.69 1915.47L1179.79 1915.01L1180.22 1914.84L1179.77 1914.75L1179.6 1914.32L1179.51 1914.77L1179.07 1914.94Z" fill="white"/>
<path d="M1231.75 1769.16L1232.2 1769.25L1232.37 1769.69L1232.46 1769.23L1232.9 1769.06L1232.44 1768.97L1232.28 1768.54L1232.18 1768.99L1231.75 1769.16Z" fill="white"/>
<path d="M1088.83 1628.69L1089.28 1628.78L1089.45 1629.22L1089.54 1628.76L1089.98 1628.59L1089.52 1628.5L1089.36 1628.07L1089.26 1628.52L1088.83 1628.69Z" fill="white"/>
<path d="M970.816 1773.65L971.271 1773.74L971.438 1774.18L971.532 1773.72L971.966 1773.56L971.51 1773.46L971.344 1773.03L971.25 1773.48L970.816 1773.65Z" fill="white"/>
<path d="M740.511 2006.41L740.967 2006.5L741.133 2006.93L741.227 2006.48L741.662 2006.31L741.206 2006.22L741.039 2005.78L740.945 2006.24L740.511 2006.41Z" fill="white"/>
<path d="M880.981 2057.86L881.436 2057.95L881.603 2058.39L881.697 2057.93L882.131 2057.76L881.675 2057.67L881.509 2057.24L881.415 2057.69L880.981 2057.86Z" fill="white"/>
<path d="M985.517 2053.77L985.973 2053.87L986.139 2054.3L986.233 2053.85L986.667 2053.68L986.212 2053.59L986.045 2053.15L985.951 2053.61L985.517 2053.77Z" fill="white"/>
<path d="M947.132 1865.12L947.588 1865.21L947.754 1865.65L947.848 1865.19L948.283 1865.02L947.827 1864.93L947.66 1864.5L947.567 1864.95L947.132 1865.12Z" fill="white"/>
<path d="M784.612 1879.82L785.067 1879.91L785.234 1880.35L785.328 1879.89L785.762 1879.73L785.306 1879.63L785.14 1879.2L785.046 1879.65L784.612 1879.82Z" fill="white"/>
<path d="M1258.29 1826.74L1258.75 1826.83L1258.91 1827.26L1259.01 1826.81L1259.44 1826.64L1258.99 1826.55L1258.82 1826.11L1258.72 1826.57L1258.29 1826.74Z" fill="white"/>
<path d="M1144.77 1693.62L1145.23 1693.71L1145.39 1694.14L1145.49 1693.69L1145.92 1693.52L1145.47 1693.43L1145.3 1692.99L1145.21 1693.45L1144.77 1693.62Z" fill="white"/>
<path d="M915.282 1914.12L915.738 1914.21L915.905 1914.65L915.999 1914.19L916.433 1914.03L915.977 1913.93L915.811 1913.5L915.717 1913.95L915.282 1914.12Z" fill="white"/>
<path d="M998.583 2177.91L999.039 2178L999.206 2178.44L999.299 2177.98L999.734 2177.82L999.278 2177.72L999.111 2177.29L999.018 2177.74L998.583 2177.91Z" fill="white"/>
<path d="M1188.87 2059.49L1189.33 2059.58L1189.49 2060.02L1189.59 2059.56L1190.02 2059.4L1189.57 2059.3L1189.4 2058.87L1189.31 2059.32L1188.87 2059.49Z" fill="white"/>
<path d="M1039.42 1907.59L1039.87 1907.68L1040.04 1908.12L1040.13 1907.66L1040.57 1907.49L1040.11 1907.4L1039.95 1906.96L1039.85 1907.42L1039.42 1907.59Z" fill="white"/>
<path d="M537.564 2039.48L538.019 2039.58L538.186 2040.01L538.28 2039.56L538.714 2039.39L538.259 2039.3L538.092 2038.86L537.998 2039.32L537.564 2039.48Z" fill="white"/>
<path d="M485.703 2057.04L486.159 2057.14L486.326 2057.57L486.419 2057.11L486.854 2056.95L486.398 2056.85L486.232 2056.42L486.138 2056.88L485.703 2057.04Z" fill="white"/>
<path d="M803.803 2384.12L804.259 2384.22L804.425 2384.65L804.519 2384.2L804.954 2384.03L804.498 2383.94L804.331 2383.5L804.237 2383.96L803.803 2384.12Z" fill="white"/>
<path d="M937.332 2349.42L937.788 2349.51L937.955 2349.94L938.048 2349.49L938.483 2349.32L938.027 2349.23L937.86 2348.79L937.767 2349.25L937.332 2349.42Z" fill="white"/>
<path d="M816.462 2118.29L816.918 2118.39L817.085 2118.82L817.178 2118.36L817.613 2118.2L817.157 2118.1L816.99 2117.67L816.897 2118.13L816.462 2118.29Z" fill="white"/>
<path d="M1023.95 1979.22L1024.86 1979.4L1025.19 1980.27L1025.38 1979.36L1026.25 1979.03L1025.34 1978.84L1025.01 1977.97L1024.82 1978.88L1023.95 1979.22Z" fill="white"/>
<path d="M1055.58 1808.74L1056.5 1808.93L1056.83 1809.8L1057.02 1808.89L1057.89 1808.55L1056.97 1808.36L1056.64 1807.5L1056.45 1808.41L1055.58 1808.74Z" fill="white"/>
<path d="M693.793 1935.33L694.705 1935.52L695.038 1936.39L695.225 1935.47L696.095 1935.14L695.183 1934.95L694.849 1934.08L694.662 1935L693.793 1935.33Z" fill="white"/>
<path d="M737.484 1788.73L738.396 1788.92L738.729 1789.79L738.917 1788.88L739.786 1788.54L738.874 1788.36L738.541 1787.49L738.353 1788.4L737.484 1788.73Z" fill="white"/>
<path d="M827.728 1700.94L828.64 1701.13L828.974 1702L829.161 1701.08L830.03 1700.75L829.118 1700.56L828.785 1699.69L828.597 1700.6L827.728 1700.94Z" fill="white"/>
<path d="M558.221 1944.31L559.133 1944.5L559.467 1945.37L559.654 1944.46L560.523 1944.12L559.612 1943.94L559.278 1943.07L559.091 1943.98L558.221 1944.31Z" fill="white"/>
<path d="M892.248 2113.37L893.16 2113.55L893.493 2114.42L893.681 2113.51L894.55 2113.18L893.638 2112.99L893.304 2112.12L893.117 2113.03L892.248 2113.37Z" fill="white"/>
<path d="M1167.47 1818.54L1168.38 1818.73L1168.72 1819.6L1168.9 1818.69L1169.77 1818.35L1168.86 1818.17L1168.53 1817.3L1168.34 1818.21L1167.47 1818.54Z" fill="white"/>
<path d="M1309.98 1934.1L1310.89 1934.29L1311.23 1935.16L1311.42 1934.25L1312.29 1933.91L1311.37 1933.73L1311.04 1932.86L1310.85 1933.77L1309.98 1934.1Z" fill="white"/>
<path d="M1201.77 1736.06L1202.69 1736.24L1203.02 1737.11L1203.21 1736.2L1204.08 1735.87L1203.16 1735.68L1202.83 1734.81L1202.64 1735.72L1201.77 1736.06Z" fill="white"/>
<path d="M1334.07 1859.38L1334.99 1859.56L1335.32 1860.43L1335.51 1859.52L1336.38 1859.19L1335.47 1859L1335.13 1858.13L1334.94 1859.04L1334.07 1859.38Z" fill="white"/>
<path d="M1126.64 1620.91L1127.55 1621.09L1127.88 1621.96L1128.07 1621.05L1128.94 1620.72L1128.03 1620.53L1127.69 1619.66L1127.51 1620.57L1126.64 1620.91Z" fill="white"/>
<defs>
<radialGradient id="paint0_angular_3514_1842" cx="0" cy="0" r="1" gradientUnits="userSpaceOnUse" gradientTransform="translate(961.62 1320.85) rotate(90) scale(306.313)">
<stop offset="0.250327" stop-color="#253F7C"/>
<stop offset="0.49793" stop-color="#272731" stop-opacity="0"/>
<stop offset="0.74972" stop-color="#284589"/>
<stop offset="1" stop-color="#272731" stop-opacity="0"/>
</radialGradient>
<radialGradient id="paint1_angular_3514_1842" cx="0" cy="0" r="1" gradientUnits="userSpaceOnUse" gradientTransform="translate(962.967 1319.87) rotate(90) scale(394.545)">
<stop offset="0.250327" stop-color="#253F7C"/>
<stop offset="0.49793" stop-color="#272731" stop-opacity="0"/>
<stop offset="0.74972" stop-color="#284589"/>
<stop offset="1" stop-color="#272731" stop-opacity="0"/>
</radialGradient>
<radialGradient id="paint2_angular_3514_1842" cx="0" cy="0" r="1" gradientUnits="userSpaceOnUse" gradientTransform="translate(960.458 1320.67) rotate(90) scale(476.95)">
<stop offset="0.250327" stop-color="#253F7C"/>
<stop offset="0.49793" stop-color="#272731" stop-opacity="0"/>
<stop offset="0.74972" stop-color="#284589"/>
<stop offset="1" stop-color="#272731" stop-opacity="0"/>
</radialGradient>
<radialGradient id="paint3_angular_3514_1842" cx="0" cy="0" r="1" gradientUnits="userSpaceOnUse" gradientTransform="translate(960.458 1320.67) rotate(90) scale(555.193)">
<stop offset="0.250327" stop-color="#253F7C"/>
<stop offset="0.49793" stop-color="#272731" stop-opacity="0"/>
<stop offset="0.74972" stop-color="#284589"/>
<stop offset="1" stop-color="#272731" stop-opacity="0"/>
</radialGradient>
<radialGradient id="paint4_angular_3514_1842" cx="0" cy="0" r="1" gradientUnits="userSpaceOnUse" gradientTransform="translate(961.62 1320.85) rotate(90) scale(635.933)">
<stop offset="0.250327" stop-color="#253F7C"/>
<stop offset="0.49793" stop-color="#272731" stop-opacity="0"/>
<stop offset="0.74972" stop-color="#284589"/>
<stop offset="1" stop-color="#272731" stop-opacity="0"/>
</radialGradient>
<radialGradient id="paint5_angular_3514_1842" cx="0" cy="0" r="1" gradientUnits="userSpaceOnUse" gradientTransform="translate(960.948 1321.34) rotate(53.9376) scale(739.148 738.315)">
<stop offset="0.250327" stop-color="#253F7C"/>
<stop offset="0.49793" stop-color="#272731" stop-opacity="0"/>
<stop offset="0.74972" stop-color="#284589"/>
<stop offset="1" stop-color="#272731" stop-opacity="0"/>
</radialGradient>
</defs>
</svg>
