<svg width="34" height="29" viewBox="0 0 34 29" fill="none" xmlns="http://www.w3.org/2000/svg">
<path fill-rule="evenodd" clip-rule="evenodd" d="M0.899738 14.4997C0.899738 14.9572 1.08148 15.396 1.40498 15.7195C1.72848 16.043 2.16724 16.2247 2.62474 16.2247H27.0921L17.5287 25.3327C17.3577 25.4878 17.2196 25.6757 17.1226 25.8852C17.0255 26.0946 16.9715 26.3214 16.9637 26.5522C16.9559 26.7829 16.9945 27.0128 17.0772 27.2284C17.1599 27.4439 17.285 27.6406 17.4451 27.8069C17.6053 27.9732 17.7972 28.1057 18.0094 28.1965C18.2217 28.2872 18.45 28.3345 18.6809 28.3354C18.9117 28.3363 19.1404 28.2909 19.3534 28.2018C19.5664 28.1127 19.7593 27.9818 19.9207 27.8167L32.5707 15.7417C32.7377 15.5808 32.8705 15.3879 32.9612 15.1745C33.0519 14.9611 33.0986 14.7316 33.0986 14.4997C33.0986 14.2679 33.0519 14.0384 32.9612 13.825C32.8705 13.6116 32.7377 13.4186 32.5707 13.2577L19.9207 1.18274C19.7593 1.01772 19.5664 0.88678 19.3534 0.797689C19.1404 0.708597 18.9117 0.663163 18.6809 0.664076C18.45 0.664989 18.2217 0.712233 18.0094 0.803007C17.7972 0.893781 17.6053 1.02624 17.4451 1.19253C17.285 1.35882 17.1599 1.55557 17.0772 1.7711C16.9945 1.98664 16.9559 2.21659 16.9637 2.44731C16.9715 2.67804 17.0255 2.90486 17.1226 3.11432C17.2196 3.32378 17.3577 3.51163 17.5287 3.66674L27.0921 12.7747H2.62474C2.16724 12.7747 1.72848 12.9565 1.40498 13.28C1.08148 13.6035 0.899738 14.0422 0.899738 14.4997Z" fill="white"/>
</svg>
