<svg width="34" height="29" viewBox="0 0 34 29" fill="none" xmlns="http://www.w3.org/2000/svg">
<path fill-rule="evenodd" clip-rule="evenodd" d="M33.1003 14.4997C33.1003 14.9572 32.9185 15.396 32.595 15.7195C32.2715 16.043 31.8328 16.2247 31.3753 16.2247H6.90786L16.4713 25.3327C16.6423 25.4878 16.7804 25.6757 16.8774 25.8852C16.9745 26.0946 17.0285 26.3214 17.0363 26.5522C17.0441 26.7829 17.0055 27.0128 16.9228 27.2284C16.8401 27.4439 16.715 27.6406 16.5549 27.8069C16.3947 27.9732 16.2028 28.1057 15.9906 28.1965C15.7783 28.2872 15.55 28.3345 15.3191 28.3354C15.0883 28.3363 14.8596 28.2909 14.6466 28.2018C14.4336 28.1127 14.2407 27.9818 14.0793 27.8167L1.42926 15.7417C1.26231 15.5808 1.12952 15.3879 1.03882 15.1745C0.948115 14.9611 0.901367 14.7316 0.901367 14.4997C0.901367 14.2679 0.948115 14.0384 1.03882 13.825C1.12952 13.6116 1.26231 13.4186 1.42926 13.2577L14.0793 1.18274C14.2407 1.01772 14.4336 0.88678 14.6466 0.797689C14.8596 0.708597 15.0883 0.663163 15.3191 0.664076C15.55 0.664989 15.7783 0.712233 15.9906 0.803007C16.2028 0.893781 16.3947 1.02624 16.5549 1.19253C16.715 1.35882 16.8401 1.55557 16.9228 1.7711C17.0055 1.98664 17.0441 2.21659 17.0363 2.44731C17.0285 2.67804 16.9745 2.90486 16.8774 3.11432C16.7804 3.32378 16.6423 3.51163 16.4713 3.66674L6.90786 12.7747H31.3753C31.8328 12.7747 32.2715 12.9565 32.595 13.28C32.9185 13.6035 33.1003 14.0422 33.1003 14.4997Z" fill="white"/>
</svg>
