<svg width="122" height="59" viewBox="0 0 122 59" fill="none" xmlns="http://www.w3.org/2000/svg">
<path d="M21.572 57.6426C19.5284 58.0245 17.5231 58.1869 15.5559 58.1296C13.6078 58.0914 11.8603 57.7381 10.3133 57.0696C8.76632 56.382 7.59174 55.303 6.7896 53.8324C6.08294 52.4954 5.71052 51.1299 5.67232 49.7357C5.63412 48.3415 5.61503 46.7658 5.61503 45.0088V26.7025H12.4906V44.6077C12.4906 45.8491 12.5001 46.9377 12.5192 47.8736C12.5574 48.8094 12.7579 49.5733 13.1208 50.1654C13.8084 51.3113 14.9066 51.9511 16.4154 52.0848C17.9242 52.2185 19.643 52.1421 21.572 51.8556V57.6426ZM0 32.1171V26.7026H21.572V32.1171H0Z" fill="#4180F7"/>
<path d="M24.1348 57.2701V26.3302H30.2369V33.8646L29.492 32.8906C29.874 31.8593 30.3801 30.9234 31.0104 30.0831C31.6597 29.2236 32.4332 28.517 33.3309 27.9631C34.0948 27.4474 34.9352 27.0464 35.8519 26.7599C36.7877 26.4543 37.7427 26.2729 38.7167 26.2156C39.6907 26.1392 40.6361 26.1774 41.5529 26.3302V32.776C40.6361 32.5086 39.5761 32.4227 38.3729 32.5182C37.1888 32.6137 36.1193 32.9479 35.1643 33.5208C34.2094 34.0365 33.4264 34.6954 32.8152 35.4976C32.2231 36.2997 31.7839 37.2165 31.4974 38.2478C31.2109 39.26 31.0677 40.3582 31.0677 41.5423V57.2701H24.1348Z" fill="#4180F7"/>
<path d="M44.396 57.2701V26.3302H51.3002V57.2701H44.396Z" fill="#4180F7"/>
<path d="M57.5615 57.2701L57.5042 26.7025H64.4657L64.523 35.5549H63.6636V57.2701H57.5615Z" fill="#4180F7"/>
<path d="M107.912 58.1296C104.78 58.1296 102.03 57.4516 99.6614 56.0956C97.2931 54.7396 95.4405 52.8583 94.1036 50.4519C92.7858 48.0455 92.1269 45.2761 92.1269 42.1439C92.1269 38.7635 92.7763 35.8318 94.075 33.349C95.3737 30.847 97.1785 28.9085 99.4895 27.5334C101.8 26.1583 104.474 25.4707 107.511 25.4707C110.72 25.4707 113.441 26.2251 115.676 27.7339C117.929 29.2236 119.6 31.334 120.689 34.0652C121.778 36.7963 122.188 40.0144 121.921 43.7196H115.074V41.1986C115.055 37.8372 114.463 35.383 113.298 33.836C112.133 32.289 110.299 31.5155 107.797 31.5155C104.971 31.5155 102.87 32.394 101.495 34.1511C100.12 35.8891 99.4322 38.4388 99.4322 41.8002C99.4322 44.9324 100.12 47.3579 101.495 49.0768C102.87 50.7957 104.875 51.6551 107.511 51.6551C109.211 51.6551 110.672 51.2827 111.894 50.5378C113.136 49.7739 114.09 48.6757 114.759 47.2433L121.577 49.306C120.393 52.0944 118.56 54.2621 116.077 55.8091C113.613 57.3561 110.891 58.1296 107.912 58.1296ZM97.2549 43.7196V38.5056H118.54V43.7196H97.2549Z" fill="#4180F7"/>
<path d="M5.61503 26.7025H12.4906C12.4906 26.7025 11.2687 6.6623 34.5869 6.6623C57.9051 6.6623 57.5042 26.7025 57.5042 26.7025H64.4657C64.4657 26.7025 64.7522 -4.06637e-05 34.5869 -4.06637e-05C4.42162 -4.06637e-05 5.61503 26.7025 5.61503 26.7025Z" fill="#4180F7"/>
<circle cx="47.9691" cy="19.9876" r="3.99741" fill="white"/>
<circle cx="74.6179" cy="38.6159" r="5.99611" stroke="white" stroke-width="3.99741"/>
<path d="M87.1328 42.8195C87.1328 49.8783 81.5799 55.4779 74.8793 55.4779C68.1788 55.4779 62.6259 49.8783 62.6259 42.8195C62.6259 35.7607 68.1788 30.161 74.8793 30.161C81.5799 30.161 87.1328 35.7607 87.1328 42.8195Z" stroke="#4180F7" stroke-width="5.32988"/>
</svg>
