<svg width="205" height="206" viewBox="0 0 205 206" fill="none" xmlns="http://www.w3.org/2000/svg">
<path d="M123.738 83C117.659 83 111.685 86.845 107.077 90.8878C108.23 92.1626 109.33 93.4862 110.372 94.855C110.867 95.5153 111.588 96.4082 112.478 97.4203C116.03 94.2675 120.204 91.4754 123.738 91.4754C129.743 91.4754 134.628 96.4198 134.628 102.499C134.628 108.577 129.743 113.522 123.738 113.522C117.024 113.522 107.982 103.47 105.344 99.9449C104.051 98.2114 92.3548 83 80.2645 83C69.6425 83 61 91.7488 61 102.501C61 113.254 69.6425 122 80.2645 122C86.1689 122 91.9669 118.37 96.518 114.455C95.2511 113.075 94.0478 111.635 92.9122 110.142C92.3389 109.388 91.7409 108.654 91.1193 107.94C87.6601 110.942 83.6664 113.522 80.2645 113.522C74.2596 113.522 69.3753 108.577 69.3753 102.499C69.3753 96.4198 74.2596 91.4754 80.2645 91.4754C86.982 91.4754 96.021 101.527 98.6585 105.052C99.9514 106.786 111.648 121.997 123.738 121.997C128.845 121.992 133.741 119.936 137.353 116.28C140.964 112.625 142.995 107.668 143 102.499C142.995 97.3286 140.965 92.3718 137.353 88.7161C133.742 85.0604 128.845 83.0046 123.738 83Z" fill="#4584FF"/>
<g filter="url(#filter0_bi_1586_1023)">
<rect x="1" y="0.5" width="203" height="205" rx="24" fill="#272222" fill-opacity="0.2"/>
<rect x="2.5" y="2" width="200" height="202" rx="22.5" stroke="url(#paint0_linear_1586_1023)" stroke-width="3"/>
</g>
<path d="M62.572 132.143C60.5284 132.525 58.5231 132.687 56.5559 132.63C54.6078 132.591 52.8603 132.238 51.3133 131.57C49.7663 130.882 48.5917 129.803 47.7896 128.332C47.0829 126.995 46.7105 125.63 46.6723 124.236C46.6341 122.841 46.615 121.266 46.615 119.509V101.203H53.4906V119.108C53.4906 120.349 53.5001 121.438 53.5192 122.374C53.5574 123.309 53.7579 124.073 54.1208 124.665C54.8084 125.811 55.9066 126.451 57.4154 126.585C58.9242 126.719 60.643 126.642 62.572 126.356V132.143ZM41 106.617V101.203H62.572V106.617H41Z" fill="#4180F7"/>
<path d="M65.1348 131.77V100.83H71.2369V108.365L70.492 107.391C70.874 106.359 71.3801 105.423 72.0104 104.583C72.6597 103.724 73.4332 103.017 74.3309 102.463C75.0948 101.947 75.9352 101.546 76.8519 101.26C77.7877 100.954 78.7427 100.773 79.7167 100.716C80.6907 100.639 81.6361 100.677 82.5529 100.83V107.276C81.6361 107.009 80.5761 106.923 79.3729 107.018C78.1888 107.114 77.1193 107.448 76.1643 108.021C75.2094 108.537 74.4264 109.195 73.8152 109.998C73.2231 110.8 72.7839 111.716 72.4974 112.748C72.2109 113.76 72.0677 114.858 72.0677 116.042V131.77H65.1348Z" fill="#4180F7"/>
<path d="M85.396 131.77V100.83H92.3002V131.77H85.396Z" fill="#4180F7"/>
<path d="M98.5615 131.77L98.5042 101.203H105.466L105.523 110.055H104.664V131.77H98.5615Z" fill="#4180F7"/>
<path d="M148.912 132.63C145.78 132.63 143.03 131.952 140.661 130.596C138.293 129.24 136.441 127.358 135.104 124.952C133.786 122.545 133.127 119.776 133.127 116.644C133.127 113.263 133.776 110.332 135.075 107.849C136.374 105.347 138.179 103.408 140.489 102.033C142.8 100.658 145.474 99.9707 148.511 99.9707C151.72 99.9707 154.441 100.725 156.676 102.234C158.929 103.724 160.6 105.834 161.689 108.565C162.778 111.296 163.188 114.514 162.921 118.22H156.074V115.699C156.055 112.337 155.463 109.883 154.298 108.336C153.133 106.789 151.299 106.015 148.797 106.015C145.971 106.015 143.87 106.894 142.495 108.651C141.12 110.389 140.432 112.939 140.432 116.3C140.432 119.432 141.12 121.858 142.495 123.577C143.87 125.296 145.875 126.155 148.511 126.155C150.211 126.155 151.672 125.783 152.894 125.038C154.136 124.274 155.09 123.176 155.759 121.743L162.577 123.806C161.393 126.594 159.56 128.762 157.077 130.309C154.613 131.856 151.891 132.63 148.912 132.63ZM138.255 118.22V113.006H159.54V118.22H138.255Z" fill="#4180F7"/>
<path d="M46.615 101.203H53.4906C53.4906 101.203 52.2687 81.1623 75.5869 81.1623C98.9051 81.1623 98.5042 101.203 98.5042 101.203H105.466C105.466 101.203 105.752 74.5 75.5869 74.5C45.4216 74.5 46.615 101.203 46.615 101.203Z" fill="#4180F7"/>
<circle cx="88.9691" cy="94.4876" r="3.99741" fill="white"/>
<circle cx="115.618" cy="113.116" r="5.99611" stroke="white" stroke-width="3.99741"/>
<path d="M128.133 117.319C128.133 124.378 122.58 129.978 115.879 129.978C109.179 129.978 103.626 124.378 103.626 117.319C103.626 110.261 109.179 104.661 115.879 104.661C122.58 104.661 128.133 110.261 128.133 117.319Z" stroke="#4180F7" stroke-width="5.32988"/>
<defs>
<filter id="filter0_bi_1586_1023" x="-74" y="-74.5" width="353" height="355" filterUnits="userSpaceOnUse" color-interpolation-filters="sRGB">
<feFlood flood-opacity="0" result="BackgroundImageFix"/>
<feGaussianBlur in="BackgroundImageFix" stdDeviation="37.5"/>
<feComposite in2="SourceAlpha" operator="in" result="effect1_backgroundBlur_1586_1023"/>
<feBlend mode="normal" in="SourceGraphic" in2="effect1_backgroundBlur_1586_1023" result="shape"/>
<feColorMatrix in="SourceAlpha" type="matrix" values="0 0 0 0 0 0 0 0 0 0 0 0 0 0 0 0 0 0 127 0" result="hardAlpha"/>
<feOffset dx="3" dy="3"/>
<feGaussianBlur stdDeviation="1.5"/>
<feComposite in2="hardAlpha" operator="arithmetic" k2="-1" k3="1"/>
<feColorMatrix type="matrix" values="0 0 0 0 0 0 0 0 0 0 0 0 0 0 0 0 0 0 0.15 0"/>
<feBlend mode="normal" in2="shape" result="effect2_innerShadow_1586_1023"/>
</filter>
<linearGradient id="paint0_linear_1586_1023" x1="1" y1="26.3333" x2="227.83" y2="191.009" gradientUnits="userSpaceOnUse">
<stop stop-color="#4584FF"/>
<stop offset="1" stop-color="#231013" stop-opacity="0.55"/>
</linearGradient>
</defs>
</svg>
