<svg width="1920" height="2809" viewBox="0 0 1920 2809" fill="none" xmlns="http://www.w3.org/2000/svg">
<g filter="url(#filter0_f_3531_1855)">
<path d="M1458.73 2705.46C1509.23 2483.64 2009.35 2520.07 2220.72 2568.19C2432.08 2616.31 2443.71 2748.69 2409.41 2899.34C2384.65 3008.11 2457.69 3127.75 2246.32 3079.63C2034.96 3031.51 1416.55 2890.72 1458.73 2705.46Z" fill="#4279F8" fill-opacity="0.36"/>
</g>
<g filter="url(#filter1_f_3531_1855)">
<path d="M1686.43 2743.84C1725.19 2573.56 2109.09 2601.52 2271.33 2638.46C2433.57 2675.4 2442.5 2777.02 2416.18 2892.65C2397.17 2976.15 2453.23 3067.98 2290.99 3031.05C2128.74 2994.11 1654.05 2886.04 1686.43 2743.84Z" fill="#4279F8" fill-opacity="0.36"/>
</g>
<g filter="url(#filter2_f_3531_1855)">
<path d="M395.502 1965.83C345.001 1586.06 -155.119 1648.42 -366.482 1730.8C-577.846 1813.18 -589.477 2039.83 -555.181 2297.74C-530.416 2483.98 -603.453 2688.8 -392.089 2606.42C-180.726 2524.03 437.679 2283 395.502 1965.83Z" fill="#4279F8" fill-opacity="0.36"/>
</g>
<g filter="url(#filter3_f_3531_1855)">
<path d="M167.807 2031.52C129.042 1740.01 -254.853 1787.88 -417.097 1851.12C-579.341 1914.35 -588.269 2088.33 -561.943 2286.3C-542.933 2429.26 -598.997 2586.48 -436.753 2523.24C-274.509 2460.01 200.182 2274.99 167.807 2031.52Z" fill="#4279F8" fill-opacity="0.36"/>
</g>
<g filter="url(#filter4_f_3531_1855)">
<path d="M1523.3 1123.15C1318.19 743.448 1803.07 481.255 2044.87 421.705C2286.66 362.156 2446.14 562.099 2585.44 819.962C2686.02 1006.16 2885.63 1146.94 2643.84 1206.49C2402.04 1266.04 1694.6 1440.26 1523.3 1123.15Z" fill="#4279F8" fill-opacity="0.36"/>
</g>
<g filter="url(#filter5_f_3531_1855)">
<path d="M1768.61 1037.91C1611.16 746.445 1983.36 545.184 2168.97 499.473C2354.57 453.763 2476.99 607.24 2583.91 805.178C2661.12 948.105 2814.34 1056.16 2628.74 1101.88C2443.14 1147.59 1900.1 1281.33 1768.61 1037.91Z" fill="#4279F8" fill-opacity="0.36"/>
</g>
<defs>
<filter id="filter0_f_3531_1855" x="1206.68" y="2281.83" width="1467.47" height="1058.75" filterUnits="userSpaceOnUse" color-interpolation-filters="sRGB">
<feFlood flood-opacity="0" result="BackgroundImageFix"/>
<feBlend mode="normal" in="SourceGraphic" in2="BackgroundImageFix" result="shape"/>
<feGaussianBlur stdDeviation="125" result="effect1_foregroundBlur_3531_1855"/>
</filter>
<filter id="filter1_f_3531_1855" x="1453.55" y="2379.25" width="1205.24" height="891.498" filterUnits="userSpaceOnUse" color-interpolation-filters="sRGB">
<feFlood flood-opacity="0" result="BackgroundImageFix"/>
<feBlend mode="normal" in="SourceGraphic" in2="BackgroundImageFix" result="shape"/>
<feGaussianBlur stdDeviation="115.65" result="effect1_foregroundBlur_3531_1855"/>
</filter>
<filter id="filter2_f_3531_1855" x="-819.914" y="1418.56" width="1467.47" height="1456.6" filterUnits="userSpaceOnUse" color-interpolation-filters="sRGB">
<feFlood flood-opacity="0" result="BackgroundImageFix"/>
<feBlend mode="normal" in="SourceGraphic" in2="BackgroundImageFix" result="shape"/>
<feGaussianBlur stdDeviation="125" result="effect1_foregroundBlur_3531_1855"/>
</filter>
<filter id="filter3_f_3531_1855" x="-804.553" y="1572.04" width="1205.24" height="1196.89" filterUnits="userSpaceOnUse" color-interpolation-filters="sRGB">
<feFlood flood-opacity="0" result="BackgroundImageFix"/>
<feBlend mode="normal" in="SourceGraphic" in2="BackgroundImageFix" result="shape"/>
<feGaussianBlur stdDeviation="115.65" result="effect1_foregroundBlur_3531_1855"/>
</filter>
<filter id="filter4_f_3531_1855" x="1223.93" y="161.129" width="1784.75" height="1396.88" filterUnits="userSpaceOnUse" color-interpolation-filters="sRGB">
<feFlood flood-opacity="0" result="BackgroundImageFix"/>
<feBlend mode="normal" in="SourceGraphic" in2="BackgroundImageFix" result="shape"/>
<feGaussianBlur stdDeviation="125" result="effect1_foregroundBlur_3531_1855"/>
</filter>
<filter id="filter5_f_3531_1855" x="1499.41" y="260.055" width="1448.79" height="1151.05" filterUnits="userSpaceOnUse" color-interpolation-filters="sRGB">
<feFlood flood-opacity="0" result="BackgroundImageFix"/>
<feBlend mode="normal" in="SourceGraphic" in2="BackgroundImageFix" result="shape"/>
<feGaussianBlur stdDeviation="115.65" result="effect1_foregroundBlur_3531_1855"/>
</filter>
</defs>
</svg>
